<svg width="443" height="756" viewBox="0 0 443 756" fill="none" xmlns="http://www.w3.org/2000/svg">
<path d="M3 752.971C3.47296 740.674 15.7142 726.185 21.2195 715.598C26.2703 705.884 32.3457 689.125 45.3564 689.125C79.6439 689.125 119.808 694.9 151.559 679.47C173.425 668.844 195.948 650.826 196.407 624.656C197.271 575.415 204.047 528.132 208.553 479.211C209.342 470.651 213.111 441.539 206.373 434.052C197.01 423.649 179.635 416.546 168.688 407.423C140.298 383.765 123.892 349.456 111.694 315.08C104.702 295.376 94.8626 260.984 110.137 241.891C128.755 218.618 163.478 269.844 171.803 280.51C184.972 297.383 198.24 313.649 214.782 327.382C229.594 339.679 247.174 347.125 262.277 358.838C308.61 394.769 319.579 459.021 354.465 504.438C370.584 525.424 392.944 541.638 420.335 542.123C431.586 542.322 440.065 538.518 440.268 526.551C441.072 479.078 426.701 430.437 420.647 383.598C413.586 328.969 408.739 272.764 375.332 226.63C360.52 206.176 341.117 188.595 324.099 169.947C301.832 145.549 279.861 120.978 257.917 96.2907C235.829 71.442 210.746 49.3194 191.112 22.3227C186.332 15.7492 183.159 9.44116 181.045 3" stroke="#EC5B09" stroke-width="5" stroke-linecap="round"/>
</svg>
