<svg width="1103" height="213" viewBox="0 0 1103 213" fill="none" xmlns="http://www.w3.org/2000/svg">
<path d="M3 3.20817C47.0215 3.20817 91.157 2.32846 135.148 4.18591C183.581 6.23091 230.339 15.1423 277.8 24.2296C297.998 28.0969 317.8 31.4257 338.378 31.807C348.025 31.9858 358.557 32.4138 367.934 34.9847C403.031 44.6069 427.669 87.3673 453.183 110.026C497.067 149 533.034 78.5052 570.186 60.8948C578.422 56.991 592.407 62.4852 600.964 62.6058C623.052 62.9171 640.601 53.7588 661.908 50.5063C699.626 44.7488 738.554 47.2064 776.591 47.2064C806.026 47.2064 835.46 47.2064 864.894 47.2064C895.009 47.2064 928.122 44.1985 955.517 59.4282C977.037 71.3921 980.149 97.7065 984.462 119.681C988.406 139.776 987.418 155.964 1010.11 160.38C1027.12 163.689 1044.38 160.657 1060.31 169.424C1072.65 176.218 1095.22 195.644 1100 210" stroke="#EC5B09" stroke-width="5" stroke-linecap="round"/>
</svg>
