<svg width="180" height="193" viewBox="0 0 180 193" fill="none" xmlns="http://www.w3.org/2000/svg">
<path d="M67.0698 101.814C69.5512 101.107 70.8491 99.8228 71.7984 98.1176L69.6791 96.5168C69.0818 97.7058 68.1963 98.6857 66.6959 99.1129C64.2338 99.8139 61.9601 98.6937 61.1934 96.0007C60.4431 93.3654 61.6871 91.0149 64.1684 90.3085C65.6111 89.8977 66.8581 90.1873 67.9839 90.7818L68.9202 88.3734C67.2864 87.5284 65.4845 87.1889 63.2532 87.8241C59.1368 88.9961 57.0071 92.6177 58.1955 96.7918C59.3894 100.985 63.1073 102.942 67.0698 101.814ZM80.2356 98.0445C84.3135 96.8835 86.4187 93.1026 85.2795 89.1016C84.1404 85.1006 80.3649 83.0147 76.287 84.1757C72.2091 85.3367 70.0984 89.0984 71.2376 93.0994C72.3767 97.1004 76.1576 99.2056 80.2356 98.0445ZM74.2575 92.2396C73.5127 89.6236 74.4956 87.3058 76.977 86.5994C79.4392 85.8984 81.4955 87.3508 82.2403 89.9668C82.9851 92.5829 82.0022 94.9006 79.5401 95.6016C77.0587 96.3081 75.0024 94.8556 74.2575 92.2396Z" fill="#EC5B09"/>
<path d="M99.3971 90.0491C103.362 91.5506 107.308 89.7725 108.781 85.8821C110.254 81.9917 108.469 78.065 104.504 76.5635C100.538 75.062 96.6001 76.8214 95.127 80.7118C93.6538 84.6022 95.4318 88.5475 99.3971 90.0491ZM98.0635 81.8238C99.0267 79.28 101.198 78.0066 103.611 78.9202C106.005 79.8268 106.789 82.2193 105.826 84.763C104.862 87.3068 102.691 88.5802 100.297 87.6737C97.8838 86.76 97.1002 84.3675 98.0635 81.8238Z" fill="#EC5B09"/>
<path d="M124.477 94.074L134.953 92.5926L134.6 90.0975L127.174 91.1476L125.575 79.8401L122.525 80.2713L124.477 94.074Z" fill="#EC5B09"/>
<path d="M21.9149 118.035C27.5773 112.211 32.7611 106.006 38.1919 99.9719C42.1347 95.591 48.694 84.3098 54.6674 82.6031C55.3442 82.4098 52.2897 85.4795 51.3921 85.8784C47.1912 87.7455 44.1522 87.4153 39.4821 86.6724C31.1422 85.3456 24.1405 82.7496 16.5554 79.1294C15.599 78.6729 2.01135 72.4756 3.05739 71.9834C6.99443 70.1307 14.9231 74.1458 18.7389 75.1594C24.8662 76.7869 30.9063 76.9459 37.1994 76.9459C59.0961 76.9459 11.2888 37.0346 9.01239 32.4819C6.96087 28.3788 22.4802 34.8793 22.9074 35.0624C30.5304 38.3294 38.4718 41.1867 45.9334 44.7889C58.1069 50.6657 59.4314 52.2773 59.4314 38.2384C59.4314 31.6466 59.1251 24.9738 59.4314 18.3884C59.7024 12.5614 65.9931 25.7715 66.5774 26.9239C68.2694 30.2609 79.172 54.8476 81.2664 43.9949C83.9307 30.189 86.2877 16.0082 91.4891 3.00463C91.5772 2.78457 95.8155 10.4844 96.1539 11.3416C99.7059 20.3401 104.535 28.5153 108.362 37.3451C114.131 50.6601 117.275 36.7062 121.562 29.1074C126.69 20.0166 136.251 8.86345 136.251 26.5269C136.251 30.4032 128.559 51.8888 132.082 53.3244C146.06 59.0191 161.449 52.3379 175.554 51.9349C179.558 51.8205 175.051 52.9327 173.47 54.1184C166.895 59.0492 161.137 64.9479 155.108 70.4946C145.246 79.5685 150.051 82.0167 160.468 87.7641C164.935 90.2287 182.841 107.229 171.584 98.3839C159.182 88.6397 155.71 100.407 154.513 113.47C153.758 121.708 152.998 130.03 152.429 138.282C152.034 144.003 151.719 144.947 148.558 138.977C143.552 129.521 139.211 119.718 133.77 110.492C127.477 99.8228 129.105 112.236 129.105 118.135C129.105 121.041 127.26 156.45 122.753 149.895C119.848 145.669 112.619 123.08 105.583 128.357C98.8914 133.376 95.1135 141.904 90.7944 148.803C83.3112 160.755 75.1423 172.491 66.3789 183.54C65.6059 184.515 58.7176 194.449 59.8284 187.907C61.5884 177.543 65.6167 167.555 70.1504 158.132C73.2837 151.62 81.2761 139.557 78.9836 131.533C78.2487 128.961 59.4405 151.771 57.7441 153.468C41.9967 169.215 57.7163 142.688 61.2179 136.694C61.6926 135.882 70.343 122.963 68.9594 122.005C65.6301 119.7 50.425 126.267 46.5289 126.968C36.743 128.729 26.8664 128.881 16.9524 128.754C13.3058 128.708 6.34902 128.084 13.7764 126.571C21.2982 125.039 28.3406 121.879 35.8099 120.219C38.7239 119.571 39.2466 119.822 36.2069 119.822" stroke="#EC5B09" stroke-width="5" stroke-linecap="round"/>
</svg>
