<svg width="384" height="435" viewBox="0 0 384 435" fill="none" xmlns="http://www.w3.org/2000/svg">
<path d="M2.75232 2.63528C29.9597 5.59847 61.9874 19.6459 74.1986 46.062C86.5125 72.7004 84.9426 101.676 91.7556 129.547C95.9019 146.51 106.834 160.171 116.264 174.479C124.703 187.283 130.532 201.326 136.615 215.326C151.76 250.176 175.546 278.678 193.801 311.638C202.835 327.95 214.254 344.02 227.984 356.713C240.984 368.732 255.696 379.225 269.117 390.824C287.302 406.539 305.476 422.144 328.094 430.883C335.438 433.72 340.89 431.2 347.801 429.665C356.843 427.655 372.795 433.569 380.694 428.303" stroke="#EC5B09" stroke-width="5" stroke-linecap="round"/>
</svg>
