<svg width="156" height="132" viewBox="0 0 156 132" fill="none" xmlns="http://www.w3.org/2000/svg">
<path d="M31.06 58.28C33.98 58.28 36.26 56.64 36.26 53.48V44.06H33.16V53.12C33.16 54.84 32.12 55.58 30.74 55.58C29.58 55.58 28.66 54.9 28.08 53.54L26.2 55.44C27.18 57.34 28.86 58.28 31.06 58.28ZM52.1659 58L46.2059 44.06H42.9659L37.0259 58H40.3059L41.5659 54.84H47.6259L48.8659 58H52.1659ZM42.3659 52.52C43.5659 50.06 43.8659 48.6 43.7859 46.38H45.4659C45.3859 48.64 45.6659 50.1 46.8259 52.52H42.3659Z" fill="#EC5B09"/>
<path d="M59.7242 53.2372L62.6762 54.1834L66.9312 40.9086L63.9791 39.9624L62.2637 45.3142L56.5691 43.4889L58.2845 38.1371L55.3514 37.197L51.0965 50.4718L54.0296 51.4119L55.7999 45.8887L61.4945 47.7139L59.7242 53.2372Z" fill="#EC5B09"/>
<path d="M79.24 69H82.32C82.32 62.56 81.98 61.48 80.58 58.68L82.16 58.04L85.44 66.52H87.8L91.1 58.04L92.7 58.62C91.32 61.38 90.96 62.56 90.96 69H94.04V55.06H89.7C88.1 58.92 87.44 60.94 87.44 63.28H85.82C85.82 60.94 85.2 58.92 83.56 55.06H79.24V69Z" fill="#EC5B09"/>
<path d="M96.7483 68.5241L107.909 67.0311L107.575 64.5334L99.467 65.618L99.0268 62.3273L106.282 61.3567L105.967 58.9978L98.7112 59.9683L98.2869 56.7966L106.157 55.7438L105.823 53.2461L94.9 54.7072L96.7483 68.5241Z" fill="#EC5B09"/>
<path d="M107.24 74H118.5V71.48H110.32V68.16H117.64V65.78H110.32V62.58H118.26V60.06H107.24V74Z" fill="#EC5B09"/>
<path d="M69.24 103H79.82V100.48H72.32V89.06H69.24V103ZM95.8456 103L89.8856 89.06H86.6456L80.7056 103H83.9856L85.2456 99.84H91.3056L92.5456 103H95.8456ZM86.0456 97.52C87.2456 95.06 87.5456 93.6 87.4656 91.38H89.1456C89.0656 93.64 89.3456 95.1 90.5056 97.52H86.0456Z" fill="#EC5B09"/>
<path d="M107.095 107.122L110.109 106.397L106.846 92.8439L103.832 93.5696L105.147 99.0335L99.3335 100.433L98.0179 94.9695L95.0235 95.6905L98.2867 109.243L101.281 108.522L99.9234 102.883L105.737 101.483L107.095 107.122Z" fill="#EC5B09"/>
<path d="M3.15412 124.663C4.74245 122.042 15.35 110.009 13.6456 107.914C9.44645 102.751 8.86493 91.9168 7.25949 85.6586C4.49499 74.8824 4.44131 64.6211 8.05776 54.1113C11.9547 42.7864 22.7222 25.4998 33.4882 19.868C45.4863 13.5919 58.3433 6.32214 71.862 3.92228C84.6969 1.6438 99.7076 3.7783 111.946 8.22419C128.416 14.207 135.792 25.2788 142.737 40.804C148.383 53.4259 153 65.6489 153 79.6933C153 102.883 133.828 119.479 112.973 126.154C104.616 128.829 96.4396 128.792 87.7703 128.792C83.642 128.792 79.8522 128.715 75.7963 127.989C71.6233 127.243 66.9733 128.698 62.91 127.531C56.6628 125.735 50.6567 123.881 44.4359 121.795C41.4589 120.796 38.1112 120.61 35.9971 117.952C35.1408 116.875 33.2981 119.737 32.69 120.303C29.6741 123.112 24.3517 124.223 20.6019 125.638C16.1431 127.32 11.1289 127.709 6.46123 128.563C3.43444 129.117 1.10083 129.412 5.20681 127.76" stroke="#EC5B09" stroke-width="5" stroke-linecap="round"/>
</svg>
