<svg width="694" height="611" viewBox="0 0 694 611" fill="none" xmlns="http://www.w3.org/2000/svg">
<path d="M231.557 3.23154C193.559 4.11521 181.327 50.1893 173.344 80.7152C169.083 97.0082 165.163 120.326 180.169 132.706C204.001 152.367 238.574 147.075 265.582 138.326C320.876 120.414 370.09 93.8203 429.883 107.814C457.617 114.305 481.966 127.573 506.062 142.241C523.369 152.775 545.27 168.325 566.584 167.232C597.099 165.667 614.202 138.772 635.837 121.464C648.225 111.554 674.64 146.387 679.899 153.984C699.748 182.654 688.552 226.457 681.404 257.563C677.547 274.345 672.936 290.945 669.159 307.747C666.745 318.487 664.394 332.384 653.502 338.058C635.265 347.556 607.181 342.35 588.062 339.764C551.352 334.797 514.453 329.034 478.26 321.095C419.919 308.298 359.582 289.316 299.606 287.272C251.511 285.632 206.514 291.953 163.106 313.367C133.099 328.171 110.853 341.892 100.678 375.194C95.0488 393.615 85.157 406.9 72.3741 420.961C48.6775 447.027 28.5456 476.953 13.7594 508.883C-0.534832 539.75 3.92343 575.216 3.92343 608.448" stroke="#EC5B09" stroke-width="5" stroke-linecap="round"/>
</svg>
