<svg width="230" height="442" viewBox="0 0 230 442" fill="none" xmlns="http://www.w3.org/2000/svg">
<path d="M168.593 16C102.918 49.6652 44.3572 106.341 19.3221 177.092C19.2083 177.414 13.698 193.699 15.2877 193.886C21.8427 194.657 43.754 164.044 46.9057 160.58C68.0479 137.339 90.2596 116.338 117.178 99.8768C126.802 93.9917 139.652 84.8228 151.423 83.6456C156.339 83.154 154.515 86.8807 152.831 90.3069C142.546 111.225 126.858 129.583 113.801 148.758C96.3513 174.382 81.1607 200.839 69.3292 229.539C65.9036 237.848 61.0758 250.768 58.0705 259.562C57.861 260.175 52.9077 272.16 54.2238 274.573C55.8468 277.549 96.5717 233.215 97.4757 232.166C119.973 206.049 141.146 178.915 164.089 153.168C164.207 153.035 182.627 131.169 183.98 132.714C187.864 137.154 163.537 175.56 162.213 178.03C129.669 238.76 101.304 300.827 72.1438 363.141C63.2083 382.236 76.4606 350.348 77.1164 348.974C94.9962 311.523 117.655 276.419 143.261 243.8C162.491 219.302 183.154 194.491 206.684 173.902C216.617 165.211 215.179 172.362 211 182.065C182.23 248.861 141.423 310.668 116.428 379.091C106.783 405.495 125.393 372.924 128.625 367.644C145.119 340.698 161.721 313.229 181.915 288.834C184.485 285.73 194.034 272.063 194.206 283.955C194.555 308.063 185.116 333.49 178.725 356.386C172.916 377.198 166.575 397.904 162.963 419.246C162.64 421.159 160.083 430.549 164.277 425.251C170.45 417.454 175.077 408.531 181.259 400.764C187.517 392.9 196.886 389.833 205.746 385.846" stroke="#EC5B09" stroke-width="30" stroke-linecap="round"/>
</svg>
