<svg width="1323" height="640" viewBox="0 0 1323 640" fill="none" xmlns="http://www.w3.org/2000/svg">
  <path d="M3.99999 0C1.08906 54.043 3.98303 75.8251 18.4706 128.393C58.3683 273.161 184.417 362.031 321.519 407.482C469.061 456.393 635.006 464.344 783.915 417.122C853.282 395.124 913.176 355.965 980.256 329.887C1000.19 322.136 1027.9 312.525 1049.18 321.037C1067.22 328.252 1078.18 349.447 1086.17 365.919C1107.7 410.296 1119.45 465.35 1167.9 489.185C1188.29 499.212 1210.14 503.839 1232.56 506.411C1241.2 507.402 1260.32 505.124 1265.44 514.629C1274.31 531.093 1270.87 560.765 1271.29 578.791C1271.68 595.621 1269.93 613.068 1271.61 629.836C1272.35 637.258 1282.73 637.128 1288.52 636.947C1308.54 636.322 1313.13 604.88 1315.08 590.485C1326.92 502.892 1318.59 407.497 1276.98 328.306C1255.2 286.861 1230.99 266.199 1183.87 266.199C1150.47 266.199 1119.24 281.17 1085.22 278.526C1012.5 272.871 971.626 197.425 942.632 139.455C938.964 132.123 938.051 124.577 930.301 132.186C912.302 149.858 896.866 170.157 875.92 184.653C857.875 197.142 830.865 210.51 808.26 203.933C781.345 196.102 770.189 163.88 762.732 140.087C757.701 124.036 754.12 107.549 750.085 91.4128C735.773 34.1833 729.071 58.3378 717.5 0.5" stroke="#EC5B09" stroke-width="5" stroke-linecap="round"/>
</svg>
