<svg width="657" height="456" viewBox="0 0 657 456" fill="none" xmlns="http://www.w3.org/2000/svg">
<path d="M623.77 1.45801C632.196 21.0074 631.24 27.9058 611.528 40.1636C599.056 47.9189 583.471 61.4066 567.962 61.4066C552.76 61.4066 541.868 59.2556 527.456 65.9073C501.328 77.9662 470.389 75.3015 442.664 79.2292C423.967 81.8779 407.152 90.3321 388.476 92.5511C374.227 94.2441 361.21 99.3762 346.62 98.492C330.242 97.4994 314.927 91.2799 299.903 85.17C286.803 79.8426 275.16 74.5485 260.747 74.5485C245.624 74.5485 231.53 78.5265 217.271 83.1898C190.149 92.06 165.063 98.672 136.44 98.672C123.437 98.672 107.112 100.287 105.655 116.315C103.597 138.956 116.578 153.518 124.738 172.843C130.019 185.35 137.68 197.024 143.461 209.388C152.466 228.65 169.628 223.885 187.927 225.41C214.783 227.648 241.343 231.352 268.398 231.531C297.932 231.727 326.804 226.67 356.431 226.67C371.607 226.67 386.848 227.07 401.978 225.68C423.991 223.659 444.793 216.129 466.607 213.348C472.295 212.623 483.215 209.762 488.48 213.168C493.719 216.558 497.297 222.485 502.252 226.31C521.326 241.034 554.369 239.396 576.963 244.133C586.375 246.106 595.32 247.733 604.957 247.733C608.833 247.733 614.807 246.674 618.549 248.093C623.215 249.863 628.04 256.789 630.251 260.965C635.533 270.943 640.322 280.683 646.453 290.22C658.656 309.202 659.146 329.087 646.993 348.008C629.978 374.499 605.897 392.68 573.542 393.554C553.096 394.107 533.569 399.486 516.834 411.377C484.786 434.148 444.108 424.204 407.378 422.358C377.674 420.866 349.572 415.376 320.246 411.377C288.854 407.096 259.607 407.748 228.433 414.617C201.516 420.548 175.231 430.361 148.321 435.68C138.664 437.589 126.048 434.528 116.997 437.661C105.719 441.565 96.8044 450.211 84.232 452.783C66.8132 456.346 51.6113 450.399 34.7249 447.022C11.5095 442.379 -11.025 442.841 -34.045 448.282C-49.6119 451.962 -64.4385 453.503 -80.3116 453.503C-84.3935 453.503 -87.6328 454.619 -91.5632 455.033C-100.798 456.005 -80.7482 447.726 -79.4115 447.022" stroke="#232323" stroke-linecap="round"/>
</svg>
