<svg width="381" height="33" viewBox="0 0 381 33" fill="none" xmlns="http://www.w3.org/2000/svg">
<path d="M2.88257 24.9283C11.0647 24.9283 17.56 28.1415 25.4559 28.7264C30.782 29.1209 36.2363 28.798 41.5796 28.798C53.7298 28.798 65.5851 30.0879 77.7685 30.0879C86.8483 30.0879 94.8437 28.8848 103.782 27.7948C114.258 26.5172 125.608 26.955 135.742 23.6384C142.582 21.4 149.913 18.3621 156.094 14.6091C163.643 10.0257 174.06 10.6663 182.466 10.7394C197.037 10.8661 209.143 14.52 222.739 19.0521C236.023 23.4799 251.04 23.33 264.804 21.5603C286.881 18.7218 304.077 3 326.72 3C336.052 3 342.877 3.65334 351.729 5.86645C360.167 7.97596 369.543 6.86971 378.244 6.86971" stroke="#EC5B09" stroke-width="5" stroke-linecap="round"/>
</svg>
