<svg width="381" height="33" viewBox="0 0 381 33" fill="none" xmlns="http://www.w3.org/2000/svg">
<path d="M2.88257 25.2996C11.0647 25.2996 17.56 28.5128 25.4559 29.0977C30.782 29.4922 36.2363 29.1693 41.5796 29.1693C53.7298 29.1693 65.5851 30.4592 77.7685 30.4592C86.8483 30.4592 94.8437 29.2561 103.782 28.1661C114.258 26.8885 125.608 27.3263 135.742 24.0097C142.582 21.7713 149.913 18.7334 156.094 14.9804C163.643 10.397 174.06 11.0376 182.466 11.1107C197.037 11.2374 209.143 14.8913 222.739 19.4234C236.023 23.8512 251.04 23.7012 264.804 21.9315C286.881 19.0931 304.077 3.37129 326.72 3.37129C336.052 3.37129 342.877 4.02463 351.729 6.23774C360.167 8.34725 369.543 7.241 378.244 7.241" stroke="#EC5B09" stroke-width="5" stroke-linecap="round"/>
</svg>
