<svg width="271" height="225" viewBox="0 0 271 225" fill="none" xmlns="http://www.w3.org/2000/svg">
<path d="M124.733 133.542C118.519 140.031 115.089 148.311 114.443 158.382C113.798 168.452 116.258 178.686 121.823 189.082L108.505 201.073C98.3503 184.092 96.2776 167.593 102.287 151.576L25.7092 220.527L17.5576 211.287L94.1352 142.337C77.1523 145.794 60.9017 142.005 45.3833 130.97L58.5161 119.145C68.1503 125.877 78.2371 129.578 88.7765 130.248C99.4331 130.924 108.257 128.449 115.249 122.823L124.733 133.542Z" fill="#EC5B09"/>
<path d="M67.2931 100.332C69.7312 99.4883 70.9554 98.1334 71.8082 96.378L69.6028 94.8979C69.0728 96.1183 68.2434 97.1461 66.7692 97.6563C64.3499 98.4936 62.0173 97.502 61.1016 94.8559C60.2054 92.2666 61.3163 89.8504 63.7544 89.0066C65.1719 88.516 66.4331 88.7356 67.5903 89.2664L68.3908 86.8094C66.7124 86.057 64.8944 85.8185 62.702 86.5772C58.6574 87.977 56.733 91.7118 58.1524 95.8131C59.5784 99.9333 63.3997 101.68 67.2931 100.332ZM82.7173 94.6977L85.6468 93.6838L81.0877 80.5104L78.1582 81.5243L79.9962 86.8352L74.3451 88.791L72.507 83.4801L69.5964 84.4874L74.1556 97.6608L77.0662 96.6535L75.1693 91.1724L80.8204 89.2166L82.7173 94.6977ZM87.98 92.8763L98.6207 89.1936L97.7965 86.8122L90.0664 89.4876L88.9806 86.3501L95.898 83.9561L95.1196 81.707L88.2022 84.101L87.1556 81.077L94.6589 78.4802L93.8347 76.0988L83.4208 79.7029L87.98 92.8763Z" fill="#EC5B09"/>
<path d="M106.791 90.1244C109.329 90.5906 111.061 90.0141 112.668 88.9062L111.477 86.532C110.415 87.3333 109.187 87.8194 107.653 87.5375C105.135 87.0749 103.593 85.0632 104.099 82.3093C104.594 79.6144 106.751 78.0585 109.288 78.5246C110.764 78.7957 111.753 79.6078 112.499 80.6396L114.405 78.8954C113.315 77.414 111.85 76.3112 109.569 75.892C105.359 75.1186 101.845 77.4216 101.061 81.6901C100.273 85.9784 102.739 89.3799 106.791 90.1244Z" fill="#EC5B09"/>
<path d="M115.55 83.9181L118.433 85.0025L119.679 81.6892L122.44 80.3133L124.254 87.1925L127.717 88.4952L125.11 79.0098L132.457 75.3844L128.956 74.0676L120.05 78.7729L119.145 77.4284C121.361 76.0823 122.024 75.4556 122.46 74.295L123.341 71.9551L120.458 70.8707L115.55 83.9181Z" fill="#EC5B09"/>
<path d="M154.909 128.164L157.965 127.783L156.245 113.95L153.188 114.33L154.909 128.164Z" fill="#EC5B09"/>
<path d="M161.932 123.347L164.955 124.033L167.484 112.897L171.989 113.92L172.547 111.463L160.514 108.73L159.956 111.187L164.461 112.211L161.932 123.347Z" fill="#EC5B09"/>
<path d="M183.887 145.348C188.095 144.825 190.754 141.411 190.24 137.282C189.727 133.154 186.315 130.515 182.108 131.039C177.9 131.562 175.239 134.956 175.752 139.085C176.266 143.213 179.68 145.872 183.887 145.348ZM178.868 138.697C178.532 135.998 179.858 133.858 182.419 133.539C184.959 133.223 186.769 134.973 187.105 137.672C187.44 140.372 186.114 142.512 183.574 142.828C181.014 143.146 179.204 141.396 178.868 138.697ZM199.316 143.449C203.007 142.99 205.182 140.704 204.693 136.775L203.674 128.578L200.617 128.958L201.627 137.075C201.906 139.318 200.92 140.63 198.995 140.869C197.07 141.109 195.773 140.081 195.494 137.838L194.484 129.721L191.428 130.101L192.447 138.298C192.936 142.227 195.604 143.911 199.316 143.449Z" fill="#EC5B09"/>
<path d="M207.711 135.266L210.725 134.538L208.044 123.437L212.535 122.353L211.944 119.903L199.948 122.799L200.54 125.249L205.031 124.165L207.711 135.266Z" fill="#EC5B09"/>
<path d="M67.1321 199.084C49.1294 199.084 26.5845 199.521 13.7386 184.106C7.80482 176.985 4.76916 167.202 3.75331 158.172C2.239 144.711 3.47594 130.518 3.47594 116.983C3.47594 104.687 2.7536 92.1558 3.54528 79.8846C4.5808 63.8342 17.7979 53.3834 31.9062 48.6806C60.1039 39.2814 89.6199 46.4406 118.307 41.5384C138.816 38.0337 156.233 25.6721 171.7 12.4147C181.804 3.75454 192.677 2.28824 205.816 3.26151C229.602 5.0234 250.744 33.2642 259.903 53.0492C266.595 67.5022 270.478 87.2855 267.254 103.114C261.646 130.644 240.299 159.808 220.656 178.905C201.321 197.703 179.216 207.494 153.81 215.033C142.04 218.525 129.378 221.411 117.058 221.551C110.71 221.623 104.509 221.584 98.4054 219.609C94.331 218.291 90.7588 214.897 86.5479 214.131C78.9294 212.746 64.924 213.39 60.8913 205.325" stroke="#EC5B09" stroke-width="5" stroke-linecap="round"/>
</svg>
