<svg width="659" height="623" viewBox="0 0 659 623" fill="none" xmlns="http://www.w3.org/2000/svg">
<path d="M401.752 1C408.228 13.9519 417.186 26.2304 421.972 39.905C428.271 57.9016 412.207 81.9316 398.502 91.8988C389.864 98.181 376.887 98.9803 366.728 100.925C347.04 104.696 327.046 102.217 307.423 106.703C289.73 110.747 271.697 115.433 255.159 122.951C241.251 129.272 225.503 136.712 210.476 139.83C194.504 143.145 177.52 141.444 161.823 145.066C145.856 148.75 133.329 159.12 121.925 170.341C104.309 187.672 92.3866 206.813 93.0392 232.264C93.5432 251.922 120.312 265.175 136.909 268.732C146.865 270.865 156.622 274.589 166.516 277.217C178.972 280.525 192.757 278.691 205.512 278.842C217.427 278.982 229.015 282.929 240.896 281.279C255.883 279.197 271.375 280.616 286.481 279.744C296.052 279.192 304.058 282.219 313.2 283.626C323.964 285.282 334.058 281.355 344.071 278.119C353.355 275.12 367.842 270.32 375.755 279.112C381.554 285.555 382.12 296.384 389.656 301.408C399.821 308.185 417.415 304.865 428.561 303.214C439.911 301.532 450.241 294.846 461.509 292.201C481.271 287.561 505.151 285.228 525.237 287.688C551.24 290.872 566.842 310.591 580.48 331.196C589.113 344.238 594.831 358.166 598.895 373.261C602.298 385.901 607.052 402.077 603.769 415.325C600.505 428.498 588.104 435.997 577.141 442.225C559.793 452.078 540.245 462.687 520.724 467.499C495.843 473.633 455.656 465.802 442.011 441.141C422.433 405.76 426.955 352.505 447.969 318.559C467.088 287.674 500.299 295.65 529.931 305.561C546.376 311.061 562.685 316.448 579.397 321.086C589.836 323.983 604.502 326.247 608.373 338.147C619.456 372.216 600.738 412.454 589.507 444.21C586.211 453.532 582.602 462.939 575.606 470.207C564.118 482.143 544.54 478.489 530.021 476.255C501.989 471.943 475.765 462.497 450.857 449.085C437.769 442.037 423.011 434.374 413.126 422.908C382.899 387.844 409.841 344.631 438.491 319.191C472.794 288.729 520.636 268.491 565.677 286.424C597.936 299.268 622.735 320.808 631.933 355.298C637.768 377.181 634.336 400.193 630.849 422.185C628.151 439.204 624.509 456.711 617.039 472.374C602.445 502.972 548.176 495.562 521.807 492.052C502.043 489.421 481.834 487.919 462.231 484.289C451.518 482.305 442.1 476.036 436.595 466.416C414.785 428.301 425.8 371.761 453.024 339.501C476.219 312.015 507.865 291.453 545.096 296.173C594.346 302.416 655.996 329.015 658.11 386.079C659.145 414.033 653.946 451.348 638.251 475.443C622.698 499.32 595.629 504.901 569.468 511.369C549.089 516.407 528.06 518.132 507.545 512.813C486.981 507.482 466.94 515.563 447.788 523.375C431.029 530.211 414.809 541.842 419.805 561.828C421.812 569.857 433.297 603.297 424.048 609.309C417.447 613.599 405.429 613.622 397.961 614.815C382.994 617.206 368.068 619.203 352.918 619.96C317.216 621.745 278.975 624.602 243.965 615.537C222.141 609.886 198.839 599.625 183.306 582.68C177.465 576.308 173.956 571.306 165.253 571.306C156.197 571.306 147.771 570.13 139.075 567.335C118.191 560.622 111.523 545.992 105.496 525.992C95.9761 494.404 75.1551 475.076 45.9198 460.459C25.9199 450.459 6.92527 443.714 -15.8227 446.557C-20.9211 447.195 -26.0502 451.263 -30.446 447.099C-36.8758 441.008 -35.5097 441.637 -30.446 433.198" stroke="#F8F5F4" stroke-linecap="round"/>
</svg>
