<svg width="237" height="147" viewBox="0 0 237 147" fill="none" xmlns="http://www.w3.org/2000/svg">
<path d="M5.57132 80.404C4.08751 70.6768 1.37091 61.5602 4.30985 51.7638C6.03625 46.0091 11.1473 40.8992 11.4582 34.9908C11.7017 30.3649 20.2838 25.8207 23.6992 24.5252C28.2047 22.8162 33.0358 23.8116 37.5288 22.1891C43.9609 19.8664 49.617 15.8616 56.0305 13.5456C67.5929 9.37033 79.6655 3.30272 92.1929 3.03332C110.636 2.63669 128.388 5.9035 146.717 6.35054C165.46 6.80769 183.686 6.89119 199.559 17.8907C206.688 22.8312 214.586 28.3603 220.303 34.9441C223.657 38.8062 227.669 42.4639 228.9 47.6056C230.11 52.662 229.216 58.2194 230.115 63.3974C231.196 69.6336 232.848 75.7795 233.478 82.086C234.105 88.3536 234.247 91.7541 230.909 97.3172C225.921 105.63 220.889 113.58 214.323 120.771C202.671 133.533 185.411 138.629 168.723 141.329C159.635 142.799 150.373 143.752 141.157 143.478C133.184 143.241 125.172 139.511 117.329 138.012C107.172 136.07 97.0702 134.343 86.8199 132.966C78.7827 131.886 70.4428 130.739 62.9452 127.499C56.6343 124.772 50.527 121.455 44.0698 119.089C37.6328 116.731 30.969 115.267 24.5402 112.829C16.4698 109.767 10.6172 100.657 10.6172 92.1778" stroke="#EC5B09" stroke-width="5" stroke-linecap="round"/>
</svg>
