<svg width="375" height="753" viewBox="0 0 375 753" fill="none" xmlns="http://www.w3.org/2000/svg">
<path d="M-0.0453491 750.217C0.427613 737.92 12.6689 723.43 18.1741 712.843C23.225 703.13 29.3003 686.37 42.3111 686.37C76.5986 686.37 116.763 692.146 148.514 676.716C170.379 666.089 192.902 648.072 193.362 621.902C194.225 572.661 201.002 525.377 205.508 476.457C206.296 467.896 210.066 438.785 203.328 431.298C193.965 420.894 176.59 413.792 165.643 404.669C137.253 381.011 120.847 346.702 108.649 312.326C101.657 292.622 91.8173 258.229 107.091 239.137C125.71 215.863 160.433 267.09 168.757 277.756C181.927 294.629 195.194 310.895 211.737 324.628C226.548 336.924 244.129 344.371 259.232 356.084C305.564 392.015 316.533 456.266 351.419 501.684C358.087 510.364 365.822 518.228 374.539 524.5M178 0.245728C180.113 6.68689 183.286 12.9949 188.067 19.5684C207.701 46.5651 232.784 68.6877 254.872 93.5364C276.816 118.224 298.787 142.794 321.054 167.193C338.072 185.84 357.474 203.421 372.286 223.876C373.213 225.155 374.117 226.442 375 227.736" stroke="#EC5B09" stroke-width="5" stroke-linecap="round"/>
</svg>
