<svg width="12" height="12" viewBox="0 0 12 12" fill="none" xmlns="http://www.w3.org/2000/svg">
  <path d="M3.51505 0.0419626C2.87665 0.0720826 2.44069 0.173963 2.05957 0.323723C1.66513 0.477443 1.33081 0.683723 0.998169 1.01756C0.665529 1.3514 0.46069 1.68596 0.30805 2.081C0.16033 2.46296 0.0602497 2.89928 0.0320497 3.53804C0.00384973 4.1768 -0.00239027 4.38212 0.000729729 6.01148C0.00384973 7.64084 0.0110497 7.84508 0.0420097 8.48516C0.0724897 9.12344 0.17401 9.55929 0.32377 9.94053C0.47773 10.335 0.683769 10.6692 1.01773 11.0019C1.35169 11.3347 1.68601 11.539 2.08201 11.6919C2.46361 11.8394 2.90005 11.94 3.53869 11.9679C4.17733 11.9959 4.38289 12.0024 6.01177 11.9992C7.64065 11.9961 7.84573 11.9889 8.48569 11.9586C9.12565 11.9282 9.55921 11.826 9.94057 11.6769C10.335 11.5226 10.6694 11.3169 11.002 10.9828C11.3345 10.6488 11.5392 10.314 11.6917 9.91869C11.8396 9.53708 11.94 9.10065 11.9677 8.46248C11.9957 7.82204 12.0023 7.61756 11.9992 5.98844C11.996 4.35932 11.9887 4.15508 11.9584 3.51524C11.928 2.8754 11.8264 2.44088 11.6767 2.0594C11.5225 1.66496 11.3167 1.331 10.9829 0.998003C10.649 0.665003 10.314 0.460403 9.91885 0.308243C9.53701 0.160523 9.10081 0.0598426 8.46217 0.0322426C7.82353 0.00464257 7.61797 -0.00243743 5.98849 0.000682567C4.35901 0.00380257 4.15501 0.0107626 3.51505 0.0419626ZM3.58513 10.8885C3.00013 10.8631 2.68249 10.7659 2.47081 10.6845C2.19049 10.5765 1.99081 10.446 1.77985 10.237C1.56889 10.0281 1.43929 9.82772 1.32985 9.548C1.24765 9.33632 1.14865 9.01905 1.12129 8.43405C1.09153 7.80176 1.08529 7.61192 1.08181 6.01004C1.07833 4.40816 1.08445 4.21856 1.11217 3.58604C1.13713 3.00152 1.23493 2.68352 1.31617 2.47196C1.42417 2.19128 1.55425 1.99196 1.76365 1.78112C1.97305 1.57028 2.17285 1.44044 2.45281 1.331C2.66425 1.24844 2.98153 1.15028 3.56629 1.12244C4.19905 1.09244 4.38865 1.08644 5.99029 1.08296C7.59193 1.07948 7.78201 1.08548 8.41501 1.11332C8.99953 1.13876 9.31765 1.2356 9.52897 1.31732C9.80941 1.42532 10.009 1.55504 10.2198 1.7648C10.4306 1.97456 10.5606 2.17364 10.67 2.4542C10.7527 2.66504 10.8509 2.9822 10.8785 3.56732C10.9086 4.20008 10.9154 4.3898 10.9183 5.99132C10.9212 7.59284 10.9156 7.78304 10.8878 8.41533C10.8623 9.00033 10.7653 9.31808 10.6838 9.53C10.5758 9.8102 10.4456 10.01 10.2361 10.2207C10.0266 10.4314 9.82705 10.5613 9.54697 10.6707C9.33577 10.7532 9.01813 10.8516 8.43385 10.8794C7.80109 10.9092 7.61149 10.9154 6.00925 10.9189C4.40701 10.9224 4.21801 10.9159 3.58525 10.8885M8.47645 2.7932C8.47668 2.93562 8.51915 3.07476 8.59847 3.19304C8.67779 3.31131 8.79041 3.40341 8.92208 3.45768C9.05375 3.51195 9.19855 3.52595 9.33817 3.49791C9.4778 3.46988 9.60598 3.40107 9.70649 3.30018C9.80701 3.1993 9.87535 3.07087 9.90287 2.93114C9.93039 2.79141 9.91586 2.64666 9.86111 2.5152C9.80636 2.38373 9.71385 2.27145 9.59528 2.19256C9.47672 2.11367 9.33742 2.07172 9.19501 2.072C9.00409 2.07238 8.82114 2.14857 8.68639 2.28382C8.55165 2.41906 8.47613 2.60229 8.47645 2.7932ZM2.91925 6.00596C2.92261 7.70756 4.30453 9.08384 6.00577 9.0806C7.70701 9.07736 9.08425 7.69556 9.08101 5.99396C9.07777 4.29236 7.69549 2.91572 5.99401 2.91908C4.29253 2.92244 2.91601 4.3046 2.91925 6.00596ZM3.99997 6.0038C3.99919 5.60823 4.11572 5.22132 4.33484 4.89198C4.55395 4.56264 4.86581 4.30567 5.23097 4.15357C5.59612 4.00147 5.99819 3.96107 6.38631 4.03747C6.77443 4.11387 7.13118 4.30365 7.41144 4.58281C7.6917 4.86196 7.8829 5.21796 7.96084 5.60578C8.03878 5.99359 7.99996 6.39581 7.84931 6.76157C7.69866 7.12733 7.44293 7.4402 7.11446 7.66062C6.78599 7.88103 6.39954 7.9991 6.00397 7.99988C5.74131 8.00044 5.48112 7.94924 5.23825 7.84922C4.99538 7.7492 4.77459 7.60232 4.58849 7.41696C4.4024 7.2316 4.25464 7.01139 4.15366 6.76892C4.05268 6.52645 4.00046 6.26646 3.99997 6.0038Z" fill="#3C2B00"/>
</svg>
