<svg width="48" height="48" viewBox="0 0 48 48" fill="none" xmlns="http://www.w3.org/2000/svg">
<path fill-rule="evenodd" clip-rule="evenodd" d="M6.09673 9.04472C5.79708 9.42121 5.57289 9.80316 5.39349 10.1222C5.30834 10.2736 5.23269 10.4107 5.16377 10.5356C4.87883 11.0518 4.70915 11.3593 4.46116 11.6073C1.84026 14.2282 0.973736 17.9229 0.886517 21.4548C0.798707 25.0105 1.49231 28.641 2.24405 31.4225C2.67274 33.0086 3.52946 34.4207 4.29973 35.644C4.38038 35.772 4.46006 35.8981 4.5386 36.0223C5.25011 37.1475 5.86817 38.125 6.26948 39.157C6.93692 40.8732 8.24283 42.6023 9.75816 43.9837C11.2687 45.3607 13.137 46.5284 15.0296 46.949C18.8794 47.8045 23.2363 47.7887 27.1053 46.8214C27.9391 46.613 28.7717 46.4798 29.6374 46.3582C29.8303 46.3311 30.0273 46.3043 30.227 46.2771C30.8996 46.1855 31.6031 46.0898 32.2873 45.9645C34.1109 45.6305 36.0081 45.055 37.8408 43.5889C38.0028 43.4593 38.1717 43.3289 38.3451 43.1951C39.3374 42.4292 40.4766 41.5499 41.3084 40.0526C41.9671 38.8671 43.2488 37.4164 44.3409 36.2853C47.118 33.409 47.4208 30.0489 47.4208 26.7661C47.4208 26.1244 47.4453 25.4811 47.471 24.8037C47.4777 24.6278 47.4845 24.4496 47.4909 24.2684C47.5216 23.4086 47.544 22.502 47.5 21.592C47.4114 19.7619 47.0512 17.8262 45.8794 16.0033C45.6793 15.6921 45.4847 15.3937 45.2948 15.1026C44.6798 14.1599 44.1145 13.2933 43.5757 12.3136C43.4599 12.1031 43.3566 11.8849 43.231 11.6197C43.2069 11.5688 43.182 11.5162 43.156 11.4616C43.0058 11.1458 42.8221 10.7682 42.5945 10.4038C42.1177 9.64098 41.3927 8.84945 40.1723 8.50078C40.0428 8.46377 39.6567 8.23277 39.0991 7.71333C38.5992 7.24763 38.1364 6.71721 37.8689 6.36946C37.3109 5.64403 36.4944 5.09602 35.7645 4.70758C35.0094 4.30579 34.2024 3.9991 33.5273 3.81156C32.5014 3.52659 31.5466 3.11294 30.4863 2.65363C30.1104 2.49076 29.7212 2.32215 29.3109 2.15151C27.8161 1.52987 26.1273 0.927293 24.2263 0.86174C22.6364 0.806917 20.6936 1.0803 19.1837 1.60097C18.4916 1.83961 17.7591 1.98292 16.9072 2.1441C16.8802 2.1492 16.8531 2.15433 16.8258 2.15948C16.0274 2.31039 15.1177 2.48231 14.2225 2.78072C13.5149 3.0166 12.7869 3.41899 12.1683 3.79485C11.7388 4.05581 11.296 4.34603 10.9165 4.59477C10.7513 4.70305 10.5981 4.80346 10.4632 4.89019C10.2946 4.99854 10.1381 5.06893 9.88789 5.1815C9.79552 5.22305 9.69037 5.27035 9.56712 5.32743C9.16885 5.51187 8.62358 5.78623 8.1338 6.27602C7.54198 6.86784 7.05602 7.55533 6.65178 8.12722C6.53727 8.28922 6.42932 8.44194 6.32737 8.58059C6.22117 8.72502 6.14466 8.88216 6.09673 9.04472Z" fill="#EC5B09"/>
</svg>
