<svg width="102" height="102" viewBox="0 0 102 102" fill="none" xmlns="http://www.w3.org/2000/svg">
  <path d="M23.9444 33.4722C23.9444 35.3899 22.3899 36.9444 20.4722 36.9444C18.5546 36.9444 17 35.3899 17 33.4722C17 31.5546 18.5546 30 20.4722 30C22.3899 30 23.9444 31.5546 23.9444 33.4722Z" fill="#3C2B00"/>
  <path fill-rule="evenodd" clip-rule="evenodd" d="M17 50.6111C17.5523 50.6111 18 51.0588 18 51.6111C18 69.8365 32.7746 84.6111 51 84.6111C69.2254 84.6111 84 69.8365 84 51.6111C84 51.0588 84.4477 50.6111 85 50.6111C85.5523 50.6111 86 51.0588 86 51.6111C86 70.941 70.33 86.6111 51 86.6111C31.67 86.6111 16 70.941 16 51.6111C16 51.0588 16.4477 50.6111 17 50.6111Z" fill="#3C2B00"/>
  <path d="M84.9444 33.4722C84.9444 35.3899 83.3899 36.9444 81.4722 36.9444C79.5546 36.9444 78 35.3899 78 33.4722C78 31.5546 79.5546 30 81.4722 30C83.3899 30 84.9444 31.5546 84.9444 33.4722Z" fill="#3C2B00"/>
  <path fill-rule="evenodd" clip-rule="evenodd" d="M51 2C23.938 2 2 23.938 2 51C2 78.062 23.938 100 51 100C78.062 100 100 78.062 100 51C100 23.938 78.062 2 51 2ZM0 51C0 22.8335 22.8335 0 51 0C79.1665 0 102 22.8335 102 51C102 79.1665 79.1665 102 51 102C22.8335 102 0 79.1665 0 51Z" fill="#3C2B00"/>
</svg>
