<svg width="389" height="68" viewBox="0 0 389 68" fill="none" xmlns="http://www.w3.org/2000/svg">
  <path d="M194.5 1L194.503 9.39979C194.505 16.4452 203.741 19.0738 207.452 13.0853L214.831 1.18078V1.18078C210.886 7.55176 218.815 14.5881 224.672 9.91421L234.939 1.72113V1.72113C230.215 5.49294 235.006 12.8468 240.365 10.0491L254.604 2.61514L194.57 33.9692L273.61 3.853L194.588 33.9706L291.75 5.42116L194.606 33.9723L308.824 7.30244L194.622 33.9744L324.646 9.47622L194.638 33.9767L339.042 11.9187L194.651 33.9792L351.854 14.6031L194.663 33.982L362.942 17.5L194.673 33.985L372.185 20.5777L194.682 33.9882L379.48 23.8024L194.688 33.9915L384.75 27.1389L194.692 33.9948L387.935 30.5506L194.694 33.9983L389 34L194.694 34.0017L387.935 37.4494L194.692 34.0052L384.75 40.8611L194.688 34.0085L379.48 44.1976L194.682 34.0118L372.185 47.4223L194.673 34.015L362.942 50.5L194.663 34.018L351.854 53.3969L194.651 34.0208L339.042 56.0813L194.638 34.0233L324.646 58.5238L194.622 34.0256L308.824 60.6976L194.606 34.0277L291.75 62.5788L194.588 34.0294L273.61 64.147L194.57 34.0308L254.604 65.3849L240.365 57.9509C235.006 55.1532 230.215 62.5071 234.939 66.2789V66.2789L224.672 58.0858C218.815 53.4119 210.886 60.4482 214.831 66.8192V66.8192L207.452 54.9147C203.741 48.9262 194.505 51.5548 194.503 58.6002L194.5 67L194.497 58.6002C194.495 51.5548 185.259 48.9262 181.548 54.9147L174.169 66.8192V66.8192C178.114 60.4482 170.185 53.4119 164.328 58.0858L154.061 66.2789V66.2789C158.785 62.5071 153.994 55.1532 148.635 57.9509L134.396 65.3849L194.43 34.0308L115.39 64.147L194.412 34.0294L97.25 62.5788L194.394 34.0277L80.1758 60.6976L194.378 34.0256L64.3541 58.5238L194.362 34.0233L49.9583 56.0813L194.349 34.0208L37.1462 53.3969L194.337 34.018L26.0581 50.5L194.327 34.015L16.8154 47.4223L194.318 34.0118L9.5195 44.1976L194.312 34.0085L4.25029 40.8611L194.308 34.0052L1.06549 37.4494L194.306 34.0017L0 34L194.306 33.9983L1.06549 30.5506L194.308 33.9948L4.25029 27.1389L194.312 33.9915L9.5195 23.8024L194.318 33.9882L16.8154 20.5777L194.327 33.985L26.0581 17.5L194.337 33.982L37.1462 14.6031L194.349 33.9792L49.9583 11.9187L194.362 33.9767L64.3541 9.47622L194.378 33.9744L80.1758 7.30244L194.394 33.9723L97.25 5.42116L194.412 33.9706L115.39 3.853L194.43 33.9692L134.396 2.61514L148.635 10.0491C153.994 12.8468 158.785 5.49294 154.061 1.72113V1.72113L164.328 9.91421C170.185 14.5881 178.114 7.55176 174.169 1.18078V1.18078L181.548 13.0853C185.259 19.0738 194.495 16.4452 194.497 9.39979L194.5 1Z" stroke="#3C2B00" stroke-width="2"/>
</svg>
