<?xml version="1.0" standalone="no"?>
<!DOCTYPE svg PUBLIC "-//W3C//DTD SVG 20010904//EN"
 "http://www.w3.org/TR/2001/REC-SVG-20010904/DTD/svg10.dtd">
<svg version="1.0" xmlns="http://www.w3.org/2000/svg"
 width="311.000000pt" height="311.000000pt" viewBox="0 0 311.000000 311.000000"
 preserveAspectRatio="xMidYMid meet">
<metadata>
Created by potrace 1.11, written by Peter Selinger 2001-2013
</metadata>
<g transform="translate(0.000000,311.000000) scale(0.100000,-0.100000)"
fill="#000000" stroke="none">
<path d="M1409 3106 c-2 -2 -29 -7 -60 -10 -63 -7 -68 -8 -159 -30 -107 -25
-189 -55 -300 -107 -101 -48 -263 -150 -325 -204 -185 -162 -303 -312 -404
-513 -36 -71 -105 -256 -116 -311 -2 -9 -8 -36 -14 -61 -31 -138 -35 -435 -7
-590 36 -201 126 -420 244 -595 109 -162 201 -255 407 -413 76 -59 261 -148
395 -192 104 -34 146 -45 260 -66 75 -13 355 -12 445 2 136 21 321 71 349 93
6 5 22 12 36 16 62 19 226 109 291 160 15 11 39 29 54 40 115 82 245 222 340
365 63 95 156 275 170 330 0 3 11 35 23 71 25 73 26 75 51 214 14 77 18 138
16 265 -4 179 -7 210 -30 312 -125 549 -507 973 -1034 1148 -64 21 -129 41
-146 44 -16 3 -57 10 -90 16 -55 11 -388 24 -396 16z"/>
</g>
</svg>
