<svg width="197" height="204" viewBox="0 0 197 204" fill="none" xmlns="http://www.w3.org/2000/svg">
<path d="M54.8483 10.8638L96.1754 43.0634L134.764 7.62769L141.218 59.619L193.561 61.8481L161.361 103.175L196.797 141.763L144.805 148.218L142.576 200.56L101.249 168.361L62.6609 203.796L56.2068 151.805L3.86394 149.576L36.0636 108.249L0.627869 69.6607L52.6191 63.2066L54.8483 10.8638Z" fill="#EC5B09"/>
<path d="M54.8483 3.86376L96.1754 36.0634L134.764 0.627686L141.218 52.619L193.561 54.8481L161.361 96.1752L196.797 134.763L144.805 141.218L142.576 193.56L101.249 161.361L62.6609 196.796L56.2068 144.805L3.86394 142.576L36.0636 101.249L0.627869 62.6607L52.6191 56.2066L54.8483 3.86376Z" fill="#F3CCCC"/>
<path d="M73.0222 80.9596L80.8947 92.9095C80.742 91.6306 81.0237 90.3242 81.7399 88.9901C82.4363 87.626 83.476 86.4885 84.8588 85.5774C87.3841 83.9138 89.8582 83.3832 92.2812 83.9855C94.7343 84.5681 96.862 86.2272 98.6642 88.9629L107.963 103.077L102.777 106.494L93.8943 93.0106C92.8843 91.4774 91.7207 90.6273 90.4036 90.4603C89.1166 90.2736 87.8418 90.5961 86.5792 91.4279C85.2263 92.3191 84.4261 93.493 84.1785 94.9494C83.9309 96.4058 84.3419 97.9457 85.4113 99.5691L93.8483 112.376L88.6625 115.792L67.9266 84.3166L73.0222 80.9596Z" fill="#EC5B09"/>
<path d="M109.7 80.4194C109.183 81.4415 108.363 82.1499 107.243 82.5446C106.122 82.9393 105.023 82.9067 103.945 82.4467C102.889 81.9409 102.164 81.1277 101.769 80.0072C101.374 78.8866 101.436 77.8153 101.954 76.7932C102.493 75.7252 103.324 74.9938 104.444 74.5991C105.565 74.2044 106.653 74.26 107.709 74.7659C108.787 75.2259 109.523 76.0161 109.918 77.1366C110.313 78.2571 110.24 79.3514 109.7 80.4194ZM111.33 84.8835L120.193 110.044L114.336 112.107L105.473 86.9467L111.33 84.8835Z" fill="#EC5B09"/>
</svg>
