<svg width="229" height="117" viewBox="0 0 229 117" fill="none" xmlns="http://www.w3.org/2000/svg">
<path d="M56.3179 45.8047C56.0205 45.7222 55.8188 45.4101 55.7128 44.8683C55.2858 43.4048 54.6291 41.8457 53.7428 40.1908C52.9919 38.5094 52.0981 35.3793 51.0616 30.8004C50.823 29.5814 51.1911 28.9468 52.1658 28.8967C52.8165 28.6288 53.2759 28.8202 53.5439 29.4709C53.7853 29.9862 54.1858 31.3142 54.7453 33.455C55.1429 35.4868 55.5286 37.0989 55.9026 38.2915C56.4121 39.4576 56.8022 40.0141 57.0731 39.9611L59.074 37.2491L61.9361 32.4699C62.2099 31.7131 62.4425 31.1051 62.6339 30.6457C62.8253 30.1863 62.9755 29.8757 63.0844 29.7137C63.3288 29.5252 63.6675 29.459 64.1003 29.5149C64.6421 29.4089 65.0205 29.5458 65.2355 29.9257C65.5594 30.1436 65.8951 30.7811 66.2426 31.8382C66.699 32.7334 67.1289 33.4931 67.5323 34.1173C67.9093 34.6061 68.3804 35.2171 68.9458 35.9503C69.6466 36.657 70.0795 36.713 70.2444 36.1182C70.4093 35.5233 70.7567 33.3458 71.2867 29.5855C71.4309 27.4477 71.6665 26.1359 71.9933 25.65C72.2937 25.0287 72.7413 24.8005 73.3361 24.9654C74.0663 25.1037 74.4433 25.5925 74.4668 26.4318C74.5993 27.109 74.4978 28.7462 74.1621 31.3434C73.8 33.8051 73.4393 35.9149 73.0801 37.6729C72.6943 39.2954 72.3248 40.2818 71.9715 40.6322C71.0734 41.7924 69.6276 41.2315 67.634 38.9495L65.7347 36.7896C65.3578 36.3008 64.9941 35.8797 64.6437 35.5264C64.4022 35.0111 64.2138 34.7667 64.0783 34.7932L59.7454 41.7587C59.0093 43.0279 58.5588 43.9599 58.3939 44.5547C58.3379 44.9875 58.12 45.3114 57.7402 45.5264L57.1704 45.8489L56.3179 45.8047Z" fill="#EC5B09"/>
<path d="M89.3962 39.1214C89.0723 38.9035 88.8176 38.3205 88.6321 37.3723C88.5555 36.2622 88.4819 34.4483 88.4112 31.9307C88.3611 30.956 88.177 29.6559 87.859 28.0305C87.541 26.4051 87.2612 25.3347 87.0197 24.8194C86.7783 24.3041 86.2497 24.4778 85.4341 25.3406C84.0472 26.8777 82.9695 28.9169 82.201 31.4581C81.5679 33.9728 81.3942 36.679 81.6799 39.5765C81.6504 40.1448 81.3103 40.5629 80.6596 40.8309C80.1443 41.0723 79.6437 41.0297 79.1578 40.7028C78.8339 40.4849 78.6322 40.1728 78.5527 39.7664C78.4467 39.2246 78.426 37.6816 78.4908 35.1375L78.4465 26.286L78.6187 23.9317C78.816 22.0648 78.8837 18.8169 78.8218 14.188C78.7746 12.5095 79.4813 11.8087 80.9418 12.0855C81.6721 12.2239 81.9946 12.7936 81.9092 13.7948L81.8784 21.1843C81.846 22.4564 81.8151 23.3766 81.7857 23.9449C81.5913 25.1081 81.8755 25.1228 82.6381 23.9891C83.4008 22.8554 84.3651 22.0338 85.5312 21.5244C86.6972 21.015 87.6174 21.0459 88.2918 21.6171C89.1545 22.4328 89.8524 23.8432 90.3855 25.8485C91.0274 27.6918 91.4102 30.0078 91.534 32.7963L91.6798 36.776C91.8918 37.8596 91.8079 38.5089 91.428 38.7239C90.8568 39.3982 90.1795 39.5307 89.3962 39.1214Z" fill="#EC5B09"/>
<path d="M97.89 37.2485C96.5649 36.9452 95.5254 36.3048 94.7716 35.3272C94.1532 34.3231 93.6585 32.8729 93.2874 30.9765C92.9164 29.0802 93.0739 27.0101 93.76 24.7663C94.5815 22.496 95.6577 20.8087 96.9887 19.7045C97.4775 19.3275 98.196 19.0463 99.1441 18.8608C100.228 18.6488 101.148 18.6797 101.905 18.9535L103.243 19.3245L104.745 19.4526C105.313 19.482 105.742 20.5936 106.03 22.7874C106.186 24.3038 106.45 26.0102 106.821 27.9066C107.327 29.7764 107.782 31.0234 108.186 31.6477C108.775 33.2201 108.379 34.0711 106.998 34.2007C106.267 34.0623 105.755 33.6 105.461 32.8138C105.166 32.0276 104.773 32.1748 104.281 33.2555C103.625 34.931 102.672 36.1722 101.424 36.979C100.284 37.6239 99.1061 37.7137 97.89 37.2485ZM99.8511 34.3333C100.611 33.9034 101.347 32.6342 102.059 30.5259C102.746 28.2821 103.025 26.1178 102.899 24.033C102.687 22.9494 102.053 22.2294 100.999 21.8731C100.081 21.4903 99.2134 21.7303 98.3977 22.5931C97.691 23.2939 97.1316 24.3879 96.7193 25.8749C96.3071 27.362 96.1525 28.7283 96.2556 29.9738C96.3587 31.2194 96.531 32.0999 96.7724 32.6152C97.0139 33.1305 97.3098 33.5648 97.6603 33.9181C98.1461 34.245 98.47 34.4629 98.632 34.5718C98.9029 34.5188 99.3092 34.4393 99.8511 34.3333Z" fill="#EC5B09"/>
<path d="M111.423 34.1785C111.1 33.9606 110.926 33.4321 110.902 32.5929C110.879 31.7537 110.898 30.4139 110.96 28.5735C111.021 26.7331 111.07 24.825 111.105 22.8491C111.249 20.7113 111.227 19.5202 111.039 19.2758L109.414 19.5939C108.601 19.7529 108.046 19.7912 107.748 19.7087C107.424 19.4908 107.209 19.111 107.103 18.5692C107.133 18.0009 107.27 17.6225 107.514 17.434C107.732 17.1101 108.315 16.8554 109.263 16.6699C110.211 16.4843 110.794 16.2296 111.012 15.9057C111.23 15.5818 111.355 14.7838 111.388 13.5117C111.261 11.4269 111.766 10.414 112.903 10.4728C114.175 10.5052 114.686 11.3194 114.435 12.9154C114.38 13.3482 114.324 13.7811 114.268 14.214C116.541 14.3317 117.732 14.3096 117.841 14.1477C118.383 14.0417 118.788 14.314 119.056 14.9648C119.324 15.6155 119.294 16.1839 118.967 16.6697C118.858 16.8317 118.682 17.0069 118.437 17.1953L116.242 17.8358C115.158 18.0479 114.508 18.3158 114.29 18.6397C114.181 18.8017 114.151 19.37 114.201 20.3447C114.272 22.8623 114.263 24.9736 114.175 26.6786C114.06 28.248 113.889 30.2504 113.663 32.6856C113.413 34.2816 112.666 34.7792 111.423 34.1785Z" fill="#EC5B09"/>
<path d="M141.419 26.8328C141.095 26.6149 140.893 26.3027 140.814 25.8964C140.708 25.3546 140.672 24.0957 140.708 22.1199L140.584 12.862C140.431 10.6418 140.398 8.67918 140.486 6.97425C140.575 5.26931 140.741 4.32261 140.986 4.13415C141.339 3.78374 141.732 3.6365 142.165 3.69244C142.571 3.61293 142.95 3.74985 143.3 4.1032C143.624 4.3211 143.699 5.7831 143.525 8.48921L143.689 17.9503C143.674 21.4691 143.57 23.8101 143.375 24.9732C143.317 26.1098 143.11 26.8534 142.757 27.2038C142.513 27.3922 142.067 27.2686 141.419 26.8328Z" fill="#EC5B09"/>
<path d="M146.202 9.23122C145.554 8.79542 145.463 7.96946 145.928 6.75332C146.529 5.51068 146.548 4.17088 145.985 2.73391C145.397 1.16149 145.793 0.310491 147.174 0.180908C148.175 0.266288 148.861 1.25714 149.232 3.15348C149.576 4.91435 149.462 6.48384 148.887 7.86193C147.851 9.75239 146.956 10.2088 146.202 9.23122Z" fill="#EC5B09"/>
<path d="M157.708 24.9112C157.384 24.6933 157.102 24.3267 156.86 23.8114C156.592 23.1606 156.245 22.1035 155.818 20.64L154.413 16.6957C153.126 13.7128 152.377 11.6796 152.165 10.596C152.062 9.35039 152.484 8.63484 153.433 8.44932C154.354 8.12834 154.961 8.71284 155.252 10.2028C155.544 11.6928 156.226 13.7393 157.297 16.3423C157.618 17.264 157.926 18.1179 158.221 18.9041C158.486 20.2587 158.851 20.3279 159.316 19.1117L160.217 17.2478L161.613 13.5993C162.163 11.382 162.602 10.0305 162.929 9.54459C163.365 8.89676 163.948 8.64204 164.678 8.78043C165.841 8.97476 165.999 10.1394 165.151 12.2742L163.384 17.261L160.924 23.0163C160.406 23.9615 160.038 24.5961 159.82 24.92C159.711 25.0819 159.385 25.2159 158.843 25.3219C158.437 25.4014 158.059 25.2645 157.708 24.9112Z" fill="#EC5B09"/>
<path d="M175.628 21.6159C172.757 22.037 170.676 21.108 169.387 18.8289C168.206 16.3878 167.851 13.8554 168.322 11.2318C168.793 8.60811 170.006 6.54244 171.962 5.03477C173.563 3.87751 175.19 3.20759 176.842 3.025C178.63 2.8159 180.103 3.1604 181.264 4.0585C182.533 4.79463 183.001 6.1094 182.668 8.0028C182.5 9.30138 181.317 10.7987 179.117 12.4949C176.917 14.191 174.557 15.4263 172.037 16.2008C172.708 17.4758 173.287 18.2767 173.773 18.6036C174.367 18.7685 175.261 18.6639 176.454 18.2899C178.783 17.9748 180.601 16.8455 181.909 14.9021C182.453 14.0923 183.117 13.892 183.901 14.3013C184.793 14.5487 184.993 15.2127 184.501 16.2934C184.01 17.374 182.963 18.493 181.361 19.6503C180.628 20.2156 179.814 20.7266 178.918 21.183C178.132 21.4775 177.604 21.6512 177.333 21.7042C177.171 21.5953 176.602 21.5658 175.628 21.6159ZM173.962 12.0267C176.05 11.1963 177.652 10.0391 178.768 8.55497C180.482 6.53199 179.903 5.73106 177.032 6.15218C175.651 6.28177 174.417 6.80445 173.331 7.72025C172.244 8.63604 171.536 9.68875 171.206 10.8784C170.877 12.068 170.874 12.7718 171.197 12.9897C171.63 13.0456 172.552 12.7246 173.962 12.0267Z" fill="#EC5B09"/>
<path d="M63.6818 76.9706C63.2489 76.9147 62.6541 76.7498 61.8974 76.476C61.276 76.1756 60.6415 75.8076 59.9936 75.3718C59.6432 75.0184 59.3223 74.0967 59.0307 72.6068C58.8746 71.0903 58.854 69.5473 58.9688 67.9778C59.063 64.8654 59.0364 61.4952 58.8892 57.8675C58.8773 54.2132 58.7787 51.912 58.5931 50.9638C58.4076 50.0156 58.4915 49.3663 58.8449 49.0159C59.3337 48.639 59.8475 48.7494 60.3864 49.3472C60.8988 49.8095 61.3125 51.2052 61.6276 53.5344C61.9427 55.8636 62.0016 57.9617 61.8044 59.8285C61.8309 59.964 61.8986 59.9507 62.0075 59.7888L63.3503 59.1041C64.4368 58.1884 65.3997 57.7187 66.2389 57.6951C67.1871 57.5096 68.337 57.6362 69.6886 58.0749C72.6626 58.8994 74.4545 60.8693 75.0641 63.9847C76.1271 68.699 73.9997 72.5609 68.6818 75.5704C66.7 76.9426 65.0334 77.4094 63.6818 76.9706ZM66.3363 73.2869C69.6726 71.6496 71.535 69.6679 71.9237 67.3416C72.0356 66.4759 72.0797 65.6234 72.0561 64.7842C72.0061 63.8095 71.8058 63.1455 71.4554 62.7922C71.2139 62.2769 70.5661 61.8411 69.5119 61.4848C68.5667 60.9665 67.7422 60.706 67.0384 60.703C65.6574 60.8326 64.4899 61.6939 63.5359 63.287C62.6908 64.7181 62.2506 66.4216 62.2153 68.3974L62.3257 71.1182C62.3464 72.6612 62.8028 73.5564 63.695 73.8037C64.1544 73.9951 64.5195 74.0643 64.7904 74.0113C65.0613 73.9583 65.5766 73.7168 66.3363 73.2869Z" fill="#EC5B09"/>
<path d="M84.4502 72.0631C81.5792 72.4843 79.4988 71.5553 78.209 69.2761C77.0282 66.8351 76.6733 64.3027 77.1444 61.679C77.6155 59.0554 78.8287 56.9897 80.7839 55.482C82.3857 54.3248 84.0126 53.6548 85.6646 53.4722C87.4519 53.2632 88.9257 53.6077 90.0859 54.5057C91.3551 55.2419 91.8233 56.5566 91.4906 58.45C91.3227 59.7486 90.139 61.246 87.9394 62.9421C85.7398 64.6382 83.3797 65.8736 80.8591 66.648C81.5305 67.923 82.1091 68.724 82.595 69.0508C83.1898 69.2157 84.0835 69.1112 85.2761 68.7372C87.6053 68.4221 89.4236 67.2928 90.7309 65.3493C91.2757 64.5395 91.9397 64.3393 92.723 64.7486C93.6152 64.9959 93.8154 65.6599 93.3237 66.7406C92.832 67.8213 91.7852 68.9403 90.1833 70.0975C89.4501 70.6629 88.6359 71.1738 87.7408 71.6302C86.9546 71.9247 86.426 72.0984 86.1551 72.1515C85.9931 72.0425 85.4248 72.0131 84.4502 72.0631ZM82.7848 62.474C84.8726 61.6436 86.4744 60.4863 87.5904 59.0022C89.3042 56.9792 88.7255 56.1783 85.8545 56.5994C84.4735 56.729 83.2397 57.2517 82.1532 58.1675C81.0666 59.0833 80.3584 60.136 80.0287 61.3256C79.6989 62.5153 79.6959 63.219 80.0199 63.4369C80.4527 63.4929 81.3744 63.1719 82.7848 62.474Z" fill="#EC5B09"/>
<path d="M101.924 68.6442C99.0525 69.0653 96.9721 68.1363 95.6823 65.8572C94.5015 63.4161 94.1466 60.8837 94.6177 58.2601C95.0888 55.6364 96.302 53.5707 98.2572 52.0631C99.8591 50.9058 101.486 50.2359 103.138 50.0533C104.925 49.8442 106.399 50.1887 107.559 51.0868C108.828 51.8229 109.297 53.1377 108.964 55.0311C108.796 56.3297 107.612 57.827 105.413 59.5232C103.213 61.2193 100.853 62.4546 98.3325 63.2291C99.0038 64.5041 99.5825 65.305 100.068 65.6319C100.663 65.7967 101.557 65.6922 102.749 65.3182C105.079 65.0031 106.897 63.8738 108.204 61.9304C108.749 61.1206 109.413 60.9203 110.196 61.3296C111.089 61.577 111.289 62.241 110.797 63.3217C110.305 64.4023 109.259 65.5213 107.657 66.6786C106.923 67.2439 106.109 67.7548 105.214 68.2113C104.428 68.5057 103.899 68.6795 103.628 68.7325C103.466 68.6235 102.898 68.5941 101.924 68.6442ZM100.258 59.055C102.346 58.2246 103.948 57.0674 105.064 55.5833C106.777 53.5603 106.199 52.7594 103.328 53.1805C101.947 53.3101 100.713 53.8327 99.6265 54.7485C98.5399 55.6643 97.8318 56.717 97.502 57.9067C97.1722 59.0963 97.1693 59.8001 97.4932 60.018C97.9261 60.0739 98.8477 59.7529 100.258 59.055Z" fill="#EC5B09"/>
<path d="M113.589 65.7288C113.129 65.5374 112.955 65.0089 113.067 64.1432L113.036 61.8287C112.621 57.5502 112.879 54.1948 113.809 51.7625C114.875 49.3037 116.777 47.5251 119.516 46.4268C121.359 45.7848 122.792 46.278 123.814 47.9064C124.243 48.6661 124.644 49.9941 125.015 51.8904C125.386 53.7868 125.542 55.3032 125.483 56.4399L125.43 59.4036C125.427 60.1074 125.492 60.7979 125.625 61.4752C126.078 63.0741 125.75 63.9118 124.64 63.9884C122.988 64.171 122.227 61.7181 122.356 56.6298C122.388 55.3578 122.272 54.0445 122.007 52.6899C121.851 51.1735 121.639 50.0898 121.371 49.4391C121.291 49.0327 120.546 49.1785 119.136 49.8764C118.756 50.0914 118.281 50.536 117.709 51.2103C117.247 51.7227 116.866 52.2895 116.565 52.9109C116.374 53.3702 116.221 54.3846 116.106 55.9541C115.991 57.5236 115.918 58.9444 115.885 60.2165C115.932 61.8949 115.9 63.167 115.788 64.0327C115.785 64.7365 115.662 65.1826 115.417 65.371C114.846 66.0454 114.236 66.1646 113.589 65.7288Z" fill="#EC5B09"/>
<path d="M150.439 59.9951C148.328 59.9863 146.842 59.2222 145.982 57.7028C145.096 56.048 144.647 53.3934 144.635 49.7391L144.692 45.7197C144.669 44.8805 144.617 44.2577 144.538 43.8513C144.164 42.6588 144.329 42.064 145.032 42.0669C146.09 41.7194 146.779 42.0065 147.1 42.9282C147.421 43.8498 147.562 45.6505 147.524 48.3301C147.415 54.9614 148.743 57.7955 151.508 56.8326C152.429 56.5116 153.163 55.9462 153.707 55.1365C154.252 54.3267 154.623 52.9884 154.82 51.1215L155.532 46.1303C155.838 44.1015 155.938 42.8161 155.832 42.2743C155.861 41.706 156.134 41.3011 156.649 41.0597C157.3 40.7917 157.8 40.8344 158.151 41.1877C158.769 42.1918 158.827 44.6418 158.323 48.5375C157.929 52.2713 157.267 55.0024 156.34 56.7309C155.795 57.5407 155.034 58.3225 154.056 59.0764C153.052 59.6948 152.266 59.9892 151.698 59.9598L150.439 59.9951Z" fill="#EC5B09"/>
<path d="M164.878 63.7096C164.581 63.6271 164.379 63.315 164.273 62.7732C164.193 62.3668 164.198 61.3112 164.286 59.6063L164.427 54.9376C164.442 51.4187 164.672 48.2798 165.116 45.5206C165.534 42.6261 166.083 40.7607 166.764 39.9244C167.579 39.0616 168.651 38.4299 169.979 38.0295C171.307 37.629 172.417 37.5524 173.31 37.7997C174.337 38.0206 175.35 38.5256 176.348 39.3147C177.482 40.0773 178.251 40.7708 178.654 41.395C179.031 41.8838 179.325 42.6701 179.538 43.7537C179.75 44.8373 179.8 45.812 179.688 46.6777C179.57 48.9509 179.265 50.6279 178.773 51.7086C178.282 52.7893 177.398 53.6653 176.123 54.3367C175.364 54.7666 174.103 55.1539 172.342 55.4984C170.582 55.8429 169.268 55.9593 168.403 55.8474L167.404 61.5276C167.075 62.7172 166.855 63.393 166.746 63.555C166.175 64.2293 165.552 64.2808 164.878 63.7096ZM174.551 51.691C175.175 51.2875 175.664 50.9106 176.017 50.5602C176.344 50.0743 176.537 49.2631 176.596 48.1265C176.764 46.8279 176.755 45.7045 176.569 44.7564C174.225 42.121 172.363 40.868 170.982 40.9976C169.736 41.1007 168.906 42.2476 168.491 44.4384C167.522 49.5503 167.565 52.2844 168.619 52.6407C169.349 52.7791 170.337 52.7967 171.583 52.6937C172.802 52.4551 173.791 52.1209 174.551 51.691Z" fill="#EC5B09"/>
<path d="M201.075 49.2436C200.751 49.0257 200.577 48.4972 200.553 47.6579C200.53 46.8187 200.549 45.4789 200.611 43.6385C200.672 41.7981 200.721 39.89 200.756 37.9142C200.901 35.7764 200.879 34.5853 200.69 34.3409L199.065 34.6589C198.252 34.8179 197.697 34.8562 197.399 34.7738C197.076 34.5559 196.861 34.176 196.755 33.6342C196.784 33.0659 196.921 32.6875 197.165 32.4991C197.383 32.1752 197.966 31.9204 198.914 31.7349C199.863 31.5494 200.446 31.2947 200.664 30.9708C200.881 30.6469 201.007 29.8489 201.039 28.5768C200.912 26.492 201.417 25.479 202.554 25.5379C203.826 25.5703 204.337 26.3845 204.087 27.9805C204.031 28.4133 203.975 28.8462 203.919 29.279C206.192 29.3968 207.383 29.3747 207.492 29.2127C208.034 29.1067 208.439 29.3791 208.707 30.0298C208.975 30.6806 208.945 31.2489 208.618 31.7348C208.509 31.8967 208.333 32.0719 208.088 32.2604L205.893 32.9009C204.81 33.1129 204.159 33.3809 203.941 33.7048C203.832 33.8668 203.803 34.4351 203.853 35.4097C203.923 37.9274 203.915 40.0387 203.826 41.7436C203.711 43.3131 203.541 45.3155 203.314 47.7507C203.064 49.3466 202.317 49.8443 201.075 49.2436Z" fill="#EC5B09"/>
<path d="M218.058 46.5535C216.029 46.2473 214.436 45.2932 213.278 43.6914C212.257 42.063 211.833 39.8958 212.006 37.1897C212.036 36.6213 212.215 35.7424 212.545 34.5527C212.984 33.2011 213.462 32.0527 213.981 31.1075C215.1 28.9196 217.203 27.4532 220.292 26.7082L221.105 26.5491C221.809 26.5521 222.808 26.9893 224.104 27.8609C225.373 28.5971 226.223 29.345 226.653 30.1047C227.377 31.6506 227.804 33.1141 227.934 34.4951C228.172 35.7142 228.099 37.135 227.713 38.7574C226.553 44.3287 223.334 46.9274 218.058 46.5535ZM222.174 42.7946C223.532 41.8258 224.378 40.0428 224.714 37.4457C225.023 34.713 224.612 32.6135 223.481 31.1471C222.754 30.305 222.039 29.8824 221.335 29.8795C220.604 29.7411 219.737 29.9811 218.733 30.5995C217.947 30.894 217.336 31.3651 216.9 32.0129C216.6 32.6343 216.176 33.7017 215.628 35.2152C214.969 37.5945 214.866 39.5836 215.319 41.1825C215.881 42.6195 216.88 43.4086 218.314 43.5499C218.882 43.5794 219.505 43.5278 220.182 43.3953C220.995 43.2363 221.659 43.0361 222.174 42.7946Z" fill="#EC5B09"/>
<path fill-rule="evenodd" clip-rule="evenodd" d="M38.8984 65.4222C39.4591 66.684 38.8909 68.1614 37.6292 68.7221C26.3559 73.7325 17.4731 78.246 15.4059 90.1897C15.3203 90.6845 15.2248 92.204 15.0933 94.5051C15.0863 94.6272 15.0793 94.751 15.0721 94.8762C14.9514 96.9934 14.8065 99.5358 14.6063 101.985C14.3964 104.553 14.1174 107.134 13.7155 109.058C13.618 109.525 13.5031 110.005 13.3625 110.466C13.5356 110.604 13.707 110.745 13.8764 110.888C14.246 110.542 14.7471 109.929 15.4049 108.978C15.7604 108.464 16.1199 107.916 16.5031 107.331C16.5422 107.272 16.5815 107.212 16.6211 107.151C17.0406 106.512 17.487 105.835 17.9446 105.188C18.8128 103.962 19.9143 102.557 21.2317 101.679C22.3805 100.913 23.9327 101.223 24.6985 102.372C25.4644 103.521 25.154 105.073 24.0052 105.839C23.5226 106.161 22.8725 106.881 22.0255 108.077C21.6255 108.642 21.2234 109.251 20.802 109.894C20.762 109.955 20.7218 110.016 20.6814 110.078C20.3044 110.653 19.9101 111.254 19.5169 111.823C18.7022 113 17.6568 114.399 16.4208 115.244C15.7612 115.695 14.8657 116.116 13.7884 116.111C12.6582 116.105 11.6902 115.632 10.93 114.952C10.3807 114.461 9.7947 114.012 9.19884 113.608C9.15618 113.596 9.1134 113.583 9.07052 113.57C5.66173 112.479 3.55901 111.649 2.47914 111.073C2.21603 110.932 1.88655 110.741 1.59674 110.5C1.46784 110.392 1.19125 110.149 0.963183 109.771C0.747039 109.413 0.279652 108.395 0.877153 107.251C1.39095 106.268 2.30062 106.007 2.53874 105.946C2.8779 105.859 3.17303 105.853 3.33191 105.855C3.67338 105.859 4.00886 105.913 4.27234 105.966C5.30663 106.173 7.00972 106.738 8.89469 107.666C9.19342 106.091 9.43049 103.933 9.62295 101.577C9.81787 99.1922 9.95964 96.7063 10.081 94.5781C10.0879 94.4575 10.0947 94.3381 10.1014 94.2199L10.1047 94.1634C10.2228 92.0946 10.3317 90.1892 10.4792 89.337C13.0487 74.4907 24.5499 69.0635 35.5985 64.1531C36.8602 63.5923 38.3376 64.1605 38.8984 65.4222Z" fill="#EC5B09"/>
</svg>
