<svg width="174" height="174" viewBox="0 0 174 174" fill="none" xmlns="http://www.w3.org/2000/svg">
<path d="M47.8407 8.04387C47.606 6.11632 49.9792 5.01883 51.2959 6.44595L80.3456 37.9303C81.23 38.8888 82.7804 38.7581 83.4918 37.6651L106.86 1.76166C107.92 0.134229 110.443 0.818929 110.534 2.75857L112.55 45.5498C112.611 46.8525 113.883 47.7489 115.131 47.3689L156.11 34.8864C157.968 34.3206 159.461 36.4671 158.284 38.0116L132.322 72.0872C131.532 73.1246 131.93 74.6287 133.13 75.1395L172.546 91.9186C174.332 92.6791 174.096 95.2831 172.202 95.7099L130.411 105.125C129.139 105.412 128.477 106.82 129.068 107.983L148.476 146.172C149.356 147.903 147.502 149.746 145.776 148.856L107.71 129.206C106.551 128.607 105.139 129.26 104.844 130.531L95.1647 172.262C94.7259 174.153 92.1205 174.373 91.3713 172.581L74.8418 133.06C74.3386 131.857 72.837 131.45 71.7947 132.233L37.5556 157.979C36.0036 159.146 33.8666 157.64 34.4441 155.786L47.1855 114.886C47.5734 113.641 46.6851 112.363 45.3828 112.294L2.60518 110.007C0.666155 109.904 -0.00256758 107.376 1.63153 106.327L37.682 83.1861C38.7795 82.4816 38.92 80.9321 37.9671 80.0417L6.66707 50.7935C5.24831 49.4677 6.36078 47.1016 8.28682 47.3484L50.7779 52.794C52.0715 52.9598 53.1751 51.8632 53.0175 50.5686L47.8407 8.04387Z" fill="#EC5B09"/>
</svg>
