<svg width="203" height="118" viewBox="0 0 203 118" fill="none" xmlns="http://www.w3.org/2000/svg">
<path d="M129.499 26.8105C129.223 26.5345 129.154 25.9824 129.292 25.1543C129.43 24.3262 129.706 23.015 130.12 21.2207C130.534 19.4264 130.948 17.5632 131.362 15.6309C131.914 13.5605 132.121 12.3874 131.983 12.1113H130.327C129.499 12.1113 128.947 12.0423 128.671 11.9043C128.395 11.6283 128.257 11.2142 128.257 10.6621C128.395 10.11 128.602 9.76497 128.878 9.62695C129.154 9.35091 129.775 9.21289 130.741 9.21289C131.707 9.21289 132.328 9.07487 132.604 8.79883C132.88 8.52279 133.156 7.76367 133.432 6.52148C133.708 4.45117 134.399 3.55404 135.503 3.83008C136.745 4.10612 137.09 5.00326 136.538 6.52148C136.4 6.93555 136.262 7.34961 136.124 7.76367C138.332 8.31576 139.505 8.52279 139.643 8.38477C140.195 8.38477 140.54 8.72982 140.678 9.41992C140.816 10.11 140.678 10.6621 140.264 11.0762C140.126 11.2142 139.919 11.3522 139.643 11.4902L137.366 11.6973C136.262 11.6973 135.572 11.8353 135.296 12.1113C135.158 12.2493 135.02 12.8014 134.882 13.7676C134.468 16.252 134.053 18.3223 133.639 19.9785C133.225 21.4967 132.673 23.429 131.983 25.7754C131.431 27.2936 130.603 27.6387 129.499 26.8105Z" fill="#EC5B09"/>
<path d="M145.647 27.2246C144.405 26.6725 143.508 25.8444 142.956 24.7402C142.542 23.6361 142.335 22.1178 142.335 20.1855C142.335 18.2533 142.887 16.252 143.991 14.1816C145.233 12.1113 146.613 10.6621 148.132 9.83398C148.684 9.55794 149.443 9.41992 150.409 9.41992C151.513 9.41992 152.41 9.62695 153.1 10.041L154.343 10.6621L155.792 11.0762C156.344 11.2142 156.551 12.3874 156.413 14.5957C156.275 16.1139 156.206 17.8392 156.206 19.7715C156.344 21.7038 156.551 23.015 156.827 23.7051C157.103 25.3613 156.551 26.1204 155.171 25.9824C154.481 25.7064 154.066 25.1543 153.928 24.3262C153.79 23.498 153.376 23.5671 152.686 24.5332C151.72 26.0514 150.547 27.0866 149.167 27.6387C147.925 28.0527 146.751 27.9147 145.647 27.2246ZM148.132 24.7402C148.96 24.4642 149.926 23.36 151.03 21.4277C152.134 19.3574 152.824 17.2871 153.1 15.2168C153.1 14.1126 152.617 13.2845 151.651 12.7324C150.823 12.1803 149.926 12.2493 148.96 12.9395C148.132 13.4915 147.372 14.4577 146.682 15.8379C145.992 17.2181 145.578 18.5293 145.44 19.7715C145.302 21.0137 145.302 21.9108 145.44 22.4629C145.578 23.015 145.785 23.498 146.061 23.9121C146.475 24.3262 146.751 24.6022 146.889 24.7402C147.165 24.7402 147.58 24.7402 148.132 24.7402Z" fill="#EC5B09"/>
<path d="M158.897 25.1543C158.345 24.6022 158.345 23.498 158.897 21.8418C158.897 21.4277 158.966 20.7376 159.104 19.7715L159.725 16.459L162.417 1.75977C162.555 0.517578 162.9 -0.0345052 163.452 0.103516C164.694 -0.172526 165.453 0.103516 165.729 0.931641C165.729 1.20768 165.66 1.69076 165.522 2.38086L161.796 21.8418C161.658 22.946 161.313 23.9121 160.76 24.7402C160.208 25.4303 159.794 25.7064 159.518 25.5684L158.897 25.1543Z" fill="#EC5B09"/>
<path d="M177.737 27.0176C177.323 26.7415 176.633 25.7064 175.667 23.9121C174.839 21.9798 174.218 20.3236 173.803 18.9434C172.561 18.8053 171.802 18.8053 171.526 18.9434C171.388 18.9434 171.25 19.0124 171.112 19.1504C171.112 19.2884 171.043 19.7025 170.905 20.3926L170.077 24.5332C169.939 25.0853 169.663 25.4993 169.249 25.7754C168.973 25.9134 168.559 25.9134 168.007 25.7754C167.455 25.6374 167.178 25.2233 167.178 24.5332C167.178 23.8431 167.385 22.5319 167.8 20.5996C168.628 17.4251 169.18 15.2168 169.456 13.9746L171.112 3.20898C171.25 2.6569 171.664 2.24284 172.354 1.9668C173.044 1.69076 173.596 1.82878 174.01 2.38086C174.149 2.38086 174.149 3.00195 174.01 4.24414C173.872 5.34831 173.389 8.24674 172.561 12.9395C172.423 13.9056 172.354 14.4577 172.354 14.5957L175.253 12.1113C176.633 10.8691 177.599 10.041 178.151 9.62695C178.841 9.07487 179.324 8.86784 179.6 9.00586C180.152 9.14388 180.428 9.62695 180.428 10.4551C180.566 10.7311 180.428 11.1452 180.014 11.6973C179.6 12.1113 178.703 13.0085 177.323 14.3887C177.185 16.735 177.254 18.5293 177.53 19.7715C177.944 21.0137 178.289 21.9798 178.565 22.6699C179.255 24.0501 179.669 25.0853 179.807 25.7754C179.945 26.3275 179.807 26.8105 179.393 27.2246C178.979 27.5007 178.427 27.4316 177.737 27.0176Z" fill="#EC5B09"/>
<path d="M133.432 58.6035C132.19 58.6035 131.155 58.5345 130.327 58.3965C128.809 58.5345 128.188 58.0514 128.464 56.9473C128.602 56.2572 129.223 55.222 130.327 53.8418C131.569 52.4616 132.811 51.3574 134.053 50.5293C136.262 49.0111 137.435 47.7689 137.573 46.8027C137.849 45.6986 137.849 44.7324 137.573 43.9043C137.435 43.0762 137.159 42.6621 136.745 42.6621C135.917 42.6621 135.089 42.9382 134.26 43.4902C133.432 43.9043 132.949 44.3874 132.811 44.9395C132.811 45.4915 132.466 45.9056 131.776 46.1816C131.086 46.3197 130.534 46.1126 130.12 45.5605C129.292 44.4564 129.637 43.2142 131.155 41.834C133.501 39.7637 135.641 39.0736 137.573 39.7637C139.643 40.4538 140.747 42.3171 140.885 45.3535C140.885 46.8717 140.402 48.321 139.436 49.7012C138.608 50.9434 137.09 52.3236 134.882 53.8418C133.639 54.6699 133.087 55.222 133.225 55.498C133.363 55.6361 134.399 55.7051 136.331 55.7051C138.401 55.7051 139.574 55.7741 139.85 55.9121C140.264 56.0501 140.402 56.4642 140.264 57.1543C140.264 57.8444 140.126 58.3275 139.85 58.6035C139.574 58.7415 138.815 58.8105 137.573 58.8105C136.469 58.8105 135.089 58.7415 133.432 58.6035Z" fill="#EC5B09"/>
<path d="M160.346 59.4316C160.07 59.1556 159.932 58.7415 159.932 58.1895C159.932 57.4993 160.139 56.4642 160.553 55.084L161.589 51.3574C162.279 48.321 163.452 45.9056 165.108 44.1113C166.902 42.179 168.973 41.2129 171.319 41.2129C172.423 41.2129 173.251 41.4199 173.803 41.834C174.494 42.248 175.115 42.9382 175.667 43.9043C177.323 42.248 179.048 41.696 180.843 42.248C182.637 42.8001 183.879 44.1803 184.569 46.3887C184.707 47.2168 184.776 48.459 184.776 50.1152C184.776 51.7715 184.638 53.2897 184.362 54.6699C184.086 56.0501 183.879 57.0853 183.741 57.7754C183.741 58.4655 183.465 58.9486 182.913 59.2246C182.361 59.3626 181.809 59.1556 181.257 58.6035C180.843 57.9134 180.912 56.1191 181.464 53.2207C182.292 49.4941 181.947 46.8717 180.428 45.3535C179.6 44.8014 178.634 45.7676 177.53 48.252C176.426 50.5983 175.667 53.3587 175.253 56.5332C175.115 57.7754 174.563 58.3965 173.596 58.3965C172.768 58.3965 172.285 58.0514 172.147 57.3613C172.009 56.5332 172.216 55.015 172.768 52.8066C173.044 51.8405 173.182 51.0814 173.182 50.5293C173.182 49.9772 173.182 49.2871 173.182 48.459C173.044 46.3887 172.699 45.0775 172.147 44.5254C171.595 43.8353 170.698 43.8353 169.456 44.5254C168.214 45.2155 167.178 46.2507 166.35 47.6309C165.522 49.0111 164.763 50.9434 164.073 53.4277L162.624 58.6035C162.624 59.2936 162.348 59.7077 161.796 59.8457C161.244 59.9837 160.76 59.8457 160.346 59.4316Z" fill="#EC5B09"/>
<path d="M192.436 58.8105C189.538 58.6725 187.675 57.3613 186.846 54.877C186.156 52.2546 186.294 49.7012 187.26 47.2168C188.227 44.7324 189.814 42.9382 192.022 41.834C193.816 41.0059 195.542 40.6608 197.198 40.7988C198.992 40.9368 200.372 41.5579 201.339 42.6621C202.443 43.6283 202.65 45.0085 201.96 46.8027C201.546 48.0449 200.096 49.2871 197.612 50.5293C195.128 51.7715 192.574 52.5306 189.952 52.8066C190.366 54.1868 190.78 55.084 191.194 55.498C191.746 55.7741 192.643 55.8431 193.885 55.7051C196.232 55.8431 198.233 55.084 199.889 53.4277C200.58 52.7376 201.27 52.6686 201.96 53.2207C202.788 53.6348 202.857 54.3249 202.167 55.291C201.477 56.2572 200.234 57.1543 198.44 57.9824C197.612 58.3965 196.715 58.7415 195.749 59.0176C194.921 59.1556 194.369 59.2246 194.093 59.2246C193.955 59.0866 193.402 58.9486 192.436 58.8105ZM192.643 49.0801C194.852 48.666 196.646 47.8379 198.026 46.5957C200.096 44.9395 199.682 44.0423 196.784 43.9043C195.404 43.7663 194.093 44.0423 192.85 44.7324C191.608 45.4225 190.711 46.3197 190.159 47.4238C189.607 48.528 189.469 49.2181 189.745 49.4941C190.159 49.6322 191.125 49.4941 192.643 49.0801Z" fill="#EC5B09"/>
<path fill-rule="evenodd" clip-rule="evenodd" d="M109.998 37.798C110.246 39.1562 109.345 40.4583 107.987 40.7063C101.266 41.9333 94.2679 42.5482 87.3831 43.1531L87.1712 43.1717C80.1741 43.7866 73.2921 44.3979 66.6804 45.6149C53.5122 48.0387 41.7279 52.8102 32.9869 64.4939C32.4565 65.2029 30.8137 68.093 28.7293 72.308C26.6893 76.4328 24.3331 81.6082 22.375 86.7339C20.4007 91.9021 18.8972 96.8518 18.4596 100.582C18.2384 102.468 18.3219 103.798 18.5806 104.622C18.8011 105.324 19.0514 105.438 19.2841 105.5C19.2757 105.498 19.5043 105.547 20.0982 105.363C20.6581 105.19 21.33 104.877 22.0745 104.451C23.3318 103.732 24.5276 102.855 25.4727 102.162C25.6581 102.026 25.8338 101.897 25.9984 101.778C26.9083 101.119 27.5403 100.665 27.939 100.385C28.1308 100.25 28.2989 100.134 28.4244 100.053L28.4291 100.05C28.464 100.027 28.6175 99.9269 28.7945 99.8432C28.8426 99.8204 28.9925 99.7501 29.1943 99.6933C29.2905 99.6662 29.5019 99.6118 29.777 99.601C29.993 99.5926 30.6603 99.5895 31.3247 100.062C32.1644 100.658 32.3945 101.553 32.3759 102.175C32.3608 102.681 32.1947 103.049 32.1345 103.176C32.0017 103.455 31.8447 103.646 31.8078 103.691L31.8053 103.694C31.6487 103.885 31.4731 104.035 31.4715 104.036C31.414 104.087 31.3513 104.14 31.293 104.189C31.1739 104.289 31.0197 104.414 30.8454 104.555C30.5831 104.766 30.2478 105.034 29.8695 105.336C29.7432 105.437 29.6122 105.542 29.4775 105.649C28.3897 106.519 27.0316 107.609 25.8237 108.622C24.5585 109.682 23.6297 110.518 23.2764 110.922C22.9433 111.304 22.5874 111.866 22.0568 112.705L22.055 112.708C21.5866 113.448 20.9707 114.421 20.2465 115.215C19.5397 115.99 18.4007 116.969 16.7935 117.115C15.1004 117.27 13.6543 116.446 12.4979 115.315C11.2559 114.1 10.0473 112.736 8.9309 111.475C8.32409 110.79 7.74451 110.136 7.20161 109.553C5.55419 107.784 3.92127 106.285 1.89179 105.159C0.684614 104.488 0.249262 102.966 0.919412 101.759C1.58956 100.552 3.11143 100.117 4.3186 100.787C7.01257 102.282 9.06212 104.215 10.8602 106.145C11.5935 106.932 12.2478 107.673 12.8813 108.391C13.8925 109.537 14.851 110.623 15.9936 111.74C16.146 111.889 16.2646 111.986 16.3513 112.048C16.4044 112 16.471 111.935 16.5515 111.846C16.8971 111.467 17.2524 110.941 17.697 110.244C15.6186 109.577 14.3894 107.965 13.8101 106.119C13.2422 104.31 13.2401 102.161 13.4937 99.9995C14.0056 95.6351 15.6927 90.2154 17.7042 84.9496C19.732 79.6415 22.1569 74.3186 24.2474 70.0915C26.2933 65.9544 28.1304 62.6387 28.9833 61.4987C38.7718 48.4149 51.9542 43.2415 65.7753 40.6975C72.6582 39.4306 79.7765 38.8022 86.7335 38.1909L86.8273 38.1827C93.7955 37.5704 100.598 36.9726 107.089 35.7876C108.448 35.5396 109.75 36.4397 109.998 37.798ZM31.1336 104.255C31.1464 104.247 31.1543 104.242 31.1543 104.242C31.1543 104.242 31.15 104.244 31.1385 104.252C31.1385 104.252 31.1353 104.254 31.1336 104.255ZM16.5324 112.152C16.5324 112.152 16.5252 112.151 16.5107 112.144C16.525 112.148 16.5324 112.152 16.5324 112.152Z" fill="#EC5B09"/>
</svg>
