<svg width="197" height="197" viewBox="0 0 197 197" fill="none" xmlns="http://www.w3.org/2000/svg">
<path d="M54.8483 3.864L96.1754 36.0637L134.764 0.62793L141.218 52.6192L193.561 54.8484L161.361 96.1754L196.797 134.764L144.805 141.218L142.576 193.561L101.249 161.361L62.6609 196.797L56.2068 144.805L3.86394 142.576L36.0636 101.249L0.627869 62.6609L52.6191 56.2069L54.8483 3.864Z" fill="#F3CCCC"/>
<path d="M73.0222 80.9601L80.8947 92.91C80.742 91.6311 81.0237 90.3246 81.7399 88.9906C82.4363 87.6265 83.476 86.4889 84.8589 85.5779C87.3841 83.9143 89.8582 83.3836 92.2812 83.986C94.7343 84.5685 96.862 86.2277 98.6642 88.9633L107.963 103.078L102.777 106.494L93.8943 93.011C92.8843 91.4778 91.7207 90.6278 90.4036 90.4608C89.1166 90.274 87.8418 90.5966 86.5792 91.4284C85.2264 92.3196 84.4262 93.4934 84.1786 94.9498C83.9309 96.4063 84.3419 97.9462 85.4114 99.5695L93.8483 112.376L88.6625 115.793L67.9266 84.317L73.0222 80.9601Z" fill="#EC5B09"/>
<path d="M109.7 80.4199C109.183 81.442 108.363 82.1504 107.243 82.5451C106.122 82.9398 105.023 82.9071 103.945 82.4472C102.889 81.9413 102.164 81.1281 101.769 80.0076C101.374 78.8871 101.436 77.8158 101.954 76.7937C102.493 75.7257 103.324 74.9943 104.444 74.5996C105.565 74.2049 106.653 74.2605 107.709 74.7663C108.787 75.2263 109.523 76.0165 109.918 77.1371C110.313 78.2576 110.24 79.3518 109.7 80.4199ZM111.33 84.884L120.193 110.045L114.336 112.108L105.473 86.9472L111.33 84.884Z" fill="#EC5B09"/>
</svg>
