<svg width="105" height="107" viewBox="0 0 105 107" fill="none" xmlns="http://www.w3.org/2000/svg">
<path fill-rule="evenodd" clip-rule="evenodd" d="M39.9075 8.35656C40.1 8.85322 40.2883 9.36764 40.4688 9.89618C40.8755 11.0875 41.4592 12.159 42.1686 13.4461L42.2055 13.5131C42.88 14.7366 43.6664 16.1632 44.2374 17.8189C50.7505 36.7025 56.0245 55.8618 61.288 74.9825C63.9131 84.5189 66.5355 94.0457 69.3077 103.524C69.6953 104.849 68.9353 106.238 67.6101 106.625C66.2849 107.013 64.8964 106.253 64.5088 104.928C61.6881 95.2837 59.0433 85.6741 56.4082 76.0997C51.1721 57.0749 45.9742 38.189 39.5107 19.4492C39.0906 18.2313 38.4981 17.1451 37.7896 15.8595L37.7529 15.793C37.0793 14.5711 36.2966 13.1511 35.7369 11.5115C35.3491 10.3754 34.9244 9.32743 34.5158 8.41439C33.5563 6.85694 32.9386 5.77371 32.5889 5.09703C32.4792 4.88483 32.3808 4.68367 32.3029 4.50427C32.2646 4.4163 32.2186 4.30454 32.1769 4.18216C32.1762 4.18037 32.1756 4.17839 32.1748 4.17622C32.1498 4.10318 32.0514 3.81592 32.0287 3.45516C32.0286 3.45372 32.0285 3.45221 32.0284 3.45064C32.02 3.31793 31.9818 2.71426 32.3393 2.06898C32.5565 1.67685 32.928 1.2603 33.4902 1.00313C34.0335 0.75458 34.5454 0.750654 34.8979 0.802189C35.504 0.890816 35.9074 1.17918 36.0055 1.2493L36.007 1.25038C36.164 1.36257 36.2779 1.47069 36.3381 1.53038C36.5481 1.73853 36.7132 1.97139 36.7904 2.08175C37.2454 2.73163 38.0709 4.1625 38.938 6.05908C39.119 6.35108 39.3134 6.66195 39.5218 6.99229C39.7893 7.41633 39.9136 7.88997 39.9075 8.35656ZM32.6665 4.91094C32.6664 4.91061 32.6703 4.91548 32.6783 4.92654C32.6706 4.91679 32.6666 4.91126 32.6665 4.91094Z" fill="#EC5B09"/>
<path fill-rule="evenodd" clip-rule="evenodd" d="M100.787 44.609C99.1406 45.875 97.2072 47.3551 96.3397 47.9844C94.1568 49.5679 91.5579 50.5066 89.133 51.1993C87.936 51.5412 86.7263 51.8375 85.5925 52.1152L85.516 52.134C84.3413 52.4217 83.2554 52.689 82.2468 52.984C76.0758 54.7889 70.0745 56.8031 64.0375 58.8292C61.0206 59.8418 57.9947 60.8574 54.9343 61.8513C45.8098 64.8146 36.5039 67.5407 26.6878 69.2168C25.3544 69.4445 23.6655 69.6301 21.9054 69.8235C21.0432 69.9183 20.1638 70.015 19.3009 70.1193C16.5642 70.4504 13.7941 70.876 11.3914 71.5825C8.94025 72.3032 7.19909 73.2251 6.21681 74.3288C5.38083 75.2681 4.89262 76.5549 5.44165 78.7548C5.77597 80.0944 4.96101 81.4514 3.62138 81.7857C2.28176 82.12 0.924758 81.3051 0.590436 79.9655C-0.311942 76.3496 0.42491 73.3158 2.48184 71.0046C4.39245 68.8579 7.21204 67.5997 9.98092 66.7855C12.7982 65.9572 15.9073 65.4934 18.7004 65.1555C19.7227 65.0319 20.683 64.9267 21.5783 64.8286C23.2275 64.6479 24.6564 64.4913 25.8463 64.2881C35.3059 62.6729 44.3426 60.034 53.3899 57.0958C56.3506 56.1342 59.3266 55.1356 62.3203 54.131C68.4142 52.0861 74.5815 50.0165 80.8432 48.1851C81.9762 47.8537 83.1709 47.5606 84.3263 47.2776L84.3633 47.2685C85.5247 46.984 86.6551 46.7071 87.7596 46.3916C90.0151 45.7473 91.9379 45.0005 93.4038 43.9372C94.4613 43.17 97.3302 40.9611 99.1265 39.5776L99.1438 39.5643C99.5794 39.2288 99.9484 38.9446 100.204 38.7487C100.332 38.6503 100.437 38.5702 100.508 38.5164C100.539 38.4925 100.579 38.4625 100.614 38.4374C100.623 38.4305 100.639 38.4189 100.658 38.4056L100.659 38.4049C100.668 38.3984 100.724 38.359 100.795 38.3156C100.818 38.3016 100.876 38.2682 100.911 38.2491C100.967 38.2196 101.131 38.1433 101.241 38.1002C101.511 38.0184 102.77 38.0392 103.648 38.4845C104.452 39.5981 104.424 41.3697 104.238 41.7453C104.154 41.8737 104.014 42.0565 103.964 42.1148C103.933 42.1489 103.88 42.2042 103.858 42.2259C103.817 42.2671 103.782 42.298 103.769 42.3101C103.64 42.4256 102.832 43.0596 101.22 44.3238L101.177 44.3573C101.053 44.4548 100.922 44.5386 100.787 44.609Z" fill="#EC5B09"/>
<path fill-rule="evenodd" clip-rule="evenodd" d="M15.0682 43.4428C12.8873 42.9854 12.1006 43.4667 11.7236 44.0044C10.9309 45.1349 9.37188 45.4088 8.24137 44.6161C7.11087 43.8234 6.837 42.2644 7.62967 41.1339C9.73683 38.1287 13.1889 37.9399 16.0943 38.5492C19.0366 39.1662 22.2825 40.7316 25.2821 42.4694C28.3236 44.2315 31.308 46.2882 33.7531 48.0365C34.6849 48.7028 35.5147 49.3064 36.2375 49.8321C37.486 50.7401 38.415 51.4158 38.998 51.781C39.2339 51.9287 39.4699 52.0766 39.706 52.2246C50.2451 58.8288 61.0709 65.6128 72.8153 67.9247C73.6986 68.0985 74.6803 68.2297 75.7984 68.3791C75.9152 68.3947 76.0334 68.4105 76.1532 68.4266C77.382 68.5914 78.741 68.781 80.0805 69.0692C82.7046 69.6338 85.696 70.6608 87.7718 73.1114C89.3281 74.9488 91.3193 75.6081 93.2182 75.0527C94.5434 74.6651 95.9319 75.4252 96.3195 76.7504C96.7071 78.0756 95.947 79.4641 94.6218 79.8517C90.475 81.0645 86.5353 79.3875 83.9565 76.343C82.9719 75.1807 81.3361 74.4538 79.0287 73.9574C77.9025 73.715 76.7198 73.5473 75.4885 73.3822C75.367 73.3659 75.2446 73.3496 75.1215 73.3331C74.0354 73.1883 72.8943 73.0362 71.8496 72.8305C59.1806 70.3366 47.6613 63.1141 37.3649 56.6584C37.0231 56.4441 36.6828 56.2307 36.3437 56.0183C35.6159 55.5624 34.4376 54.706 33.0478 53.6959C32.3561 53.1931 31.6119 52.6522 30.8448 52.1037C28.4402 50.3843 25.6089 48.4372 22.7757 46.7958C19.9004 45.1301 17.2122 43.8924 15.0682 43.4428Z" fill="#EC5B09"/>
<path fill-rule="evenodd" clip-rule="evenodd" d="M64.944 38.6701C64.1471 41.3417 63.4793 43.5805 63.1123 44.5088C54.5966 66.0481 40.0556 85.7285 26.1934 103.721C25.3507 104.815 23.7809 105.019 22.6872 104.176C21.5934 103.333 21.3899 101.764 22.2325 100.67C36.1176 82.6474 50.2376 63.4741 58.4625 42.6704C58.7454 41.9547 59.3681 39.8688 60.2534 36.903L60.3625 36.5375C61.2781 33.4704 62.411 29.6955 63.6014 26.0772C64.7841 22.4823 66.0556 18.9424 67.2572 16.3809C67.8442 15.1298 68.4939 13.9363 69.2007 13.0819C69.5443 12.6664 70.0511 12.1442 70.7378 11.8075C71.5319 11.418 72.6182 11.272 73.6701 11.8478C74.8812 12.5108 75.3256 14.03 74.6626 15.2411C74.2784 15.9431 73.6065 16.3874 72.8737 16.508C72.5959 16.9075 72.2268 17.5604 71.7839 18.5045C70.7186 20.7751 69.5248 24.0719 68.351 27.6398C67.1848 31.1843 66.0699 34.8983 65.1536 37.9678C65.0828 38.2048 65.0129 38.4391 64.944 38.6701Z" fill="#EC5B09"/>
</svg>
