<svg width="154" height="168" viewBox="0 0 154 168" fill="none" xmlns="http://www.w3.org/2000/svg">
<path d="M1.86328 27.6172C1.58724 27.3411 1.51823 26.7891 1.65625 25.9609C1.79427 25.1328 2.07031 23.8216 2.48438 22.0273C2.89844 20.2331 3.3125 18.3698 3.72656 16.4375C4.27865 14.3672 4.48568 13.194 4.34766 12.918H2.69141C1.86328 12.918 1.3112 12.849 1.03516 12.7109C0.759115 12.4349 0.621094 12.0208 0.621094 11.4688C0.759115 10.9167 0.966146 10.5716 1.24219 10.4336C1.51823 10.1576 2.13932 10.0195 3.10547 10.0195C4.07161 10.0195 4.69271 9.88151 4.96875 9.60547C5.24479 9.32943 5.52083 8.57031 5.79688 7.32812C6.07292 5.25781 6.76302 4.36068 7.86719 4.63672C9.10938 4.91276 9.45443 5.8099 8.90234 7.32812C8.76432 7.74219 8.6263 8.15625 8.48828 8.57031C10.6966 9.1224 11.8698 9.32943 12.0078 9.19141C12.5599 9.19141 12.9049 9.53646 13.043 10.2266C13.181 10.9167 13.043 11.4688 12.6289 11.8828C12.4909 12.0208 12.2839 12.1589 12.0078 12.2969L9.73047 12.5039C8.6263 12.5039 7.9362 12.6419 7.66016 12.918C7.52214 13.056 7.38411 13.6081 7.24609 14.5742C6.83203 17.0586 6.41797 19.1289 6.00391 20.7852C5.58984 22.3034 5.03776 24.2357 4.34766 26.582C3.79557 28.1003 2.96745 28.4453 1.86328 27.6172Z" fill="#EC5B09"/>
<path d="M18.0117 28.0312C16.7695 27.4792 15.8724 26.651 15.3203 25.5469C14.9062 24.4427 14.6992 22.9245 14.6992 20.9922C14.6992 19.0599 15.2513 17.0586 16.3555 14.9883C17.5977 12.918 18.9779 11.4688 20.4961 10.6406C21.0482 10.3646 21.8073 10.2266 22.7734 10.2266C23.8776 10.2266 24.7747 10.4336 25.4648 10.8477L26.707 11.4688L28.1562 11.8828C28.7083 12.0208 28.9154 13.194 28.7773 15.4023C28.6393 16.9206 28.5703 18.6458 28.5703 20.5781C28.7083 22.5104 28.9154 23.8216 29.1914 24.5117C29.4674 26.168 28.9154 26.9271 27.5352 26.7891C26.8451 26.513 26.431 25.9609 26.293 25.1328C26.1549 24.3047 25.7409 24.3737 25.0508 25.3398C24.0846 26.8581 22.9115 27.8932 21.5312 28.4453C20.2891 28.8594 19.1159 28.7214 18.0117 28.0312ZM20.4961 25.5469C21.3242 25.2708 22.2904 24.1667 23.3945 22.2344C24.4987 20.1641 25.1888 18.0938 25.4648 16.0234C25.4648 14.9193 24.9818 14.0911 24.0156 13.5391C23.1875 12.987 22.2904 13.056 21.3242 13.7461C20.4961 14.2982 19.737 15.2643 19.0469 16.6445C18.3568 18.0247 17.9427 19.3359 17.8047 20.5781C17.6667 21.8203 17.6667 22.7174 17.8047 23.2695C17.9427 23.8216 18.1497 24.3047 18.4258 24.7188C18.8398 25.1328 19.1159 25.4089 19.2539 25.5469C19.5299 25.5469 19.944 25.5469 20.4961 25.5469Z" fill="#EC5B09"/>
<path d="M31.2617 25.9609C30.7096 25.4089 30.7096 24.3047 31.2617 22.6484C31.2617 22.2344 31.3307 21.5443 31.4688 20.5781L32.0898 17.2656L34.7812 2.56641C34.9193 1.32422 35.2643 0.772135 35.8164 0.910156C37.0586 0.634115 37.8177 0.910156 38.0938 1.73828C38.0938 2.01432 38.0247 2.4974 37.8867 3.1875L34.1602 22.6484C34.0221 23.7526 33.6771 24.7188 33.125 25.5469C32.5729 26.237 32.1589 26.513 31.8828 26.375L31.2617 25.9609Z" fill="#EC5B09"/>
<path d="M50.1016 27.8242C49.6875 27.5482 48.9974 26.513 48.0312 24.7188C47.2031 22.7865 46.582 21.1302 46.168 19.75C44.9258 19.612 44.1667 19.612 43.8906 19.75C43.7526 19.75 43.6146 19.819 43.4766 19.957C43.4766 20.0951 43.4076 20.5091 43.2695 21.1992L42.4414 25.3398C42.3034 25.8919 42.0273 26.306 41.6133 26.582C41.3372 26.7201 40.9232 26.7201 40.3711 26.582C39.819 26.444 39.543 26.0299 39.543 25.3398C39.543 24.6497 39.75 23.3385 40.1641 21.4062C40.9922 18.2318 41.5443 16.0234 41.8203 14.7812L43.4766 4.01562C43.6146 3.46354 44.0286 3.04948 44.7188 2.77344C45.4089 2.4974 45.9609 2.63542 46.375 3.1875C46.513 3.1875 46.513 3.80859 46.375 5.05078C46.237 6.15495 45.7539 9.05339 44.9258 13.7461C44.7878 14.7122 44.7188 15.2643 44.7188 15.4023L47.6172 12.918C48.9974 11.6758 49.9635 10.8477 50.5156 10.4336C51.2057 9.88151 51.6888 9.67448 51.9648 9.8125C52.5169 9.95052 52.793 10.4336 52.793 11.2617C52.931 11.5378 52.793 11.9518 52.3789 12.5039C51.9648 12.918 51.0677 13.8151 49.6875 15.1953C49.5495 17.5417 49.6185 19.3359 49.8945 20.5781C50.3086 21.8203 50.6536 22.7865 50.9297 23.4766C51.6198 24.8568 52.0339 25.8919 52.1719 26.582C52.3099 27.1341 52.1719 27.6172 51.7578 28.0312C51.3438 28.3073 50.7917 28.2383 50.1016 27.8242Z" fill="#EC5B09"/>
<path d="M5.79688 59.4102C4.55469 59.4102 3.51953 59.3411 2.69141 59.2031C1.17318 59.3411 0.552083 58.8581 0.828125 57.7539C0.966146 57.0638 1.58724 56.0286 2.69141 54.6484C3.93359 53.2682 5.17578 52.1641 6.41797 51.3359C8.6263 49.8177 9.79948 48.5755 9.9375 47.6094C10.2135 46.5052 10.2135 45.5391 9.9375 44.7109C9.79948 43.8828 9.52344 43.4688 9.10938 43.4688C8.28125 43.4688 7.45312 43.7448 6.625 44.2969C5.79688 44.7109 5.3138 45.194 5.17578 45.7461C5.17578 46.2982 4.83073 46.7122 4.14062 46.9883C3.45052 47.1263 2.89844 46.9193 2.48438 46.3672C1.65625 45.263 2.0013 44.0208 3.51953 42.6406C5.86589 40.5703 8.00521 39.8802 9.9375 40.5703C12.0078 41.2604 13.112 43.1237 13.25 46.1602C13.25 47.6784 12.7669 49.1276 11.8008 50.5078C10.9727 51.75 9.45443 53.1302 7.24609 54.6484C6.00391 55.4766 5.45182 56.0286 5.58984 56.3047C5.72786 56.4427 6.76302 56.5117 8.69531 56.5117C10.7656 56.5117 11.9388 56.5807 12.2148 56.7188C12.6289 56.8568 12.7669 57.2708 12.6289 57.9609C12.6289 58.651 12.4909 59.1341 12.2148 59.4102C11.9388 59.5482 11.1797 59.6172 9.9375 59.6172C8.83333 59.6172 7.45312 59.5482 5.79688 59.4102Z" fill="#EC5B09"/>
<path d="M32.7109 60.2383C32.4349 59.9622 32.2969 59.5482 32.2969 58.9961C32.2969 58.306 32.5039 57.2708 32.918 55.8906L33.9531 52.1641C34.6432 49.1276 35.8164 46.7122 37.4727 44.918C39.2669 42.9857 41.3372 42.0195 43.6836 42.0195C44.7878 42.0195 45.6159 42.2266 46.168 42.6406C46.8581 43.0547 47.4792 43.7448 48.0312 44.7109C49.6875 43.0547 51.4128 42.5026 53.207 43.0547C55.0013 43.6068 56.2435 44.987 56.9336 47.1953C57.0716 48.0234 57.1406 49.2656 57.1406 50.9219C57.1406 52.5781 57.0026 54.0964 56.7266 55.4766C56.4505 56.8568 56.2435 57.8919 56.1055 58.582C56.1055 59.2721 55.8294 59.7552 55.2773 60.0312C54.7253 60.1693 54.1732 59.9622 53.6211 59.4102C53.207 58.7201 53.276 56.9258 53.8281 54.0273C54.6562 50.3008 54.3112 47.6784 52.793 46.1602C51.9648 45.6081 50.9987 46.5742 49.8945 49.0586C48.7904 51.4049 48.0312 54.1654 47.6172 57.3398C47.4792 58.582 46.9271 59.2031 45.9609 59.2031C45.1328 59.2031 44.6497 58.8581 44.5117 58.168C44.3737 57.3398 44.5807 55.8216 45.1328 53.6133C45.4089 52.6471 45.5469 51.888 45.5469 51.3359C45.5469 50.7839 45.5469 50.0938 45.5469 49.2656C45.4089 47.1953 45.0638 45.8841 44.5117 45.332C43.9596 44.6419 43.0625 44.6419 41.8203 45.332C40.5781 46.0221 39.543 47.0573 38.7148 48.4375C37.8867 49.8177 37.1276 51.75 36.4375 54.2344L34.9883 59.4102C34.9883 60.1003 34.7122 60.5143 34.1602 60.6523C33.6081 60.7904 33.125 60.6523 32.7109 60.2383Z" fill="#EC5B09"/>
<path d="M64.8008 59.6172C61.9023 59.4792 60.0391 58.168 59.2109 55.6836C58.5208 53.0612 58.6589 50.5078 59.625 48.0234C60.5911 45.5391 62.1784 43.7448 64.3867 42.6406C66.181 41.8125 67.9062 41.4674 69.5625 41.6055C71.3568 41.7435 72.737 42.3646 73.7031 43.4688C74.8073 44.4349 75.0143 45.8151 74.3242 47.6094C73.9102 48.8516 72.4609 50.0938 69.9766 51.3359C67.4922 52.5781 64.9388 53.3372 62.3164 53.6133C62.7305 54.9935 63.1445 55.8906 63.5586 56.3047C64.1107 56.5807 65.0078 56.6497 66.25 56.5117C68.5964 56.6497 70.5977 55.8906 72.2539 54.2344C72.944 53.5443 73.6341 53.4753 74.3242 54.0273C75.1523 54.4414 75.2214 55.1315 74.5312 56.0977C73.8411 57.0638 72.599 57.9609 70.8047 58.7891C69.9766 59.2031 69.0794 59.5482 68.1133 59.8242C67.2852 59.9622 66.7331 60.0312 66.457 60.0312C66.319 59.8932 65.7669 59.7552 64.8008 59.6172ZM65.0078 49.8867C67.2161 49.4727 69.0104 48.6445 70.3906 47.4023C72.4609 45.7461 72.0469 44.849 69.1484 44.7109C67.7682 44.5729 66.457 44.849 65.2148 45.5391C63.9727 46.2292 63.0755 47.1263 62.5234 48.2305C61.9714 49.3346 61.8333 50.0247 62.1094 50.3008C62.5234 50.4388 63.4896 50.3008 65.0078 49.8867Z" fill="#EC5B09"/>
<path fill-rule="evenodd" clip-rule="evenodd" d="M52.8737 78.9077C54.1215 78.3167 55.6122 78.8491 56.2033 80.0969C59.1279 86.2711 61.5332 92.872 63.8995 99.3657L63.9723 99.5656C66.3772 106.165 68.7489 112.654 71.6357 118.726C77.3851 130.818 85.0439 140.966 98.5919 146.385C99.414 146.714 102.631 147.553 107.242 148.475C111.754 149.378 117.363 150.314 122.821 150.879C128.324 151.449 133.494 151.62 137.21 151.077C139.089 150.803 140.352 150.378 141.081 149.915C141.703 149.52 141.747 149.249 141.747 149.008C141.747 149.016 141.735 148.783 141.404 148.257C141.092 147.761 140.616 147.193 140.012 146.584C138.992 145.555 137.835 144.627 136.921 143.894C136.742 143.75 136.572 143.614 136.414 143.485C135.543 142.777 134.94 142.284 134.566 141.972C134.386 141.821 134.231 141.689 134.12 141.589L134.116 141.585C134.085 141.557 133.948 141.435 133.822 141.285C133.787 141.245 133.681 141.118 133.573 140.938C133.522 140.852 133.415 140.662 133.334 140.399C133.269 140.193 133.094 139.549 133.378 138.785C133.737 137.819 134.542 137.365 135.147 137.222C135.64 137.106 136.038 137.171 136.176 137.197C136.48 137.253 136.706 137.355 136.758 137.379L136.762 137.381C136.987 137.482 137.177 137.613 137.179 137.614C137.243 137.657 137.311 137.704 137.373 137.747C137.5 137.837 137.661 137.953 137.842 138.085C138.114 138.284 138.46 138.538 138.849 138.825C138.979 138.921 139.114 139.021 139.253 139.123C140.375 139.949 141.779 140.978 143.07 141.883C144.422 142.831 145.469 143.511 145.951 143.748C146.406 143.971 147.042 144.169 147.989 144.465L147.992 144.466C148.829 144.726 149.927 145.07 150.882 145.564C151.814 146.046 153.054 146.893 153.612 148.407C154.199 150.003 153.777 151.613 152.984 153.022C152.133 154.536 151.127 156.057 150.199 157.462C149.694 158.225 149.212 158.954 148.789 159.629C147.507 161.679 146.482 163.644 145.919 165.896C145.584 167.235 144.227 168.05 142.887 167.715C141.548 167.38 140.733 166.023 141.068 164.683C141.815 161.694 143.151 159.214 144.55 156.978C145.121 156.066 145.668 155.242 146.197 154.444C147.042 153.171 147.843 151.964 148.626 150.571C148.731 150.385 148.794 150.246 148.831 150.146C148.771 150.107 148.691 150.059 148.585 150.005C148.129 149.769 147.529 149.562 146.74 149.313C146.634 151.493 145.395 153.098 143.762 154.135C142.161 155.152 140.087 155.71 137.933 156.024C133.585 156.66 127.913 156.433 122.306 155.853C116.654 155.268 110.885 154.303 106.261 153.378C101.735 152.472 98.0568 151.556 96.735 151.027C81.5635 144.959 73.1546 133.565 67.1201 120.873C64.1149 114.552 61.6656 107.839 59.2745 101.277L59.2423 101.189C56.8473 94.6167 54.5092 88.2004 51.6846 82.2373C51.0935 80.9895 51.6259 79.4988 52.8737 78.9077ZM137.478 137.884C137.467 137.874 137.46 137.868 137.46 137.868C137.46 137.868 137.463 137.871 137.474 137.88C137.474 137.88 137.476 137.883 137.478 137.884ZM148.884 149.944C148.884 149.944 148.885 149.951 148.883 149.967C148.883 149.952 148.884 149.944 148.884 149.944Z" fill="#EC5B09"/>
</svg>
