<svg width="59" height="960" viewBox="0 0 59 960" fill="none" xmlns="http://www.w3.org/2000/svg">
<path d="M4.5 2.5C4.5 34.2538 1.70474 66.7522 3.83528 98.7103C5.68232 126.416 4.13078 154.461 4.32222 182.221C4.52274 211.297 10.3255 239.816 14.1828 268.531C17.9268 296.403 21.8521 323.604 21.8521 351.798C21.8521 383.979 18.587 418.405 24.0434 450.283C27.638 471.283 35.7668 491.321 39.3821 512.611C42.9859 533.833 45.0758 553.16 46.0775 574.696C48.1174 618.554 53.1092 662.344 54.599 706.292C56.314 756.884 50.292 808.685 55.2077 859.07C57.8327 885.977 54.7207 911.942 54.7207 938.564C54.7207 944.514 51.1386 950.838 50.46 956.946C50.3575 957.868 50.1926 958.847 50 959.823" stroke="#EC5B09" stroke-width="5" stroke-linecap="round"/>
</svg>
