<svg width="889" height="588" viewBox="0 0 889 588" fill="none" xmlns="http://www.w3.org/2000/svg">
<path d="M41.2477 10.3086C33.4548 3.18371 27.0697 -0.455719 18.0862 7.50118C0.923587 22.7023 1.46015 46.2312 4.98467 67.0427C9.55251 94.0147 22.1183 113.685 48.1494 124.245C73.2454 134.425 104.257 132.908 124.536 113.483C137.216 101.336 143.163 84.864 141.38 67.3937C140.258 56.3959 133.884 39.6326 120.208 40.3719C104.084 41.2434 103.037 68.4267 103.246 79.7933C103.707 104.854 116.174 128.946 135.298 144.833C158.239 163.892 223.088 195.707 237.77 150.682C241.542 139.115 244.55 119.976 234.962 110.207C222.675 97.6886 212.333 112.72 208.76 124.011C195.938 164.527 199.311 222.417 243.619 243.094C268.309 254.616 289.779 245.179 309.945 229.758C335.171 210.468 361.648 187.737 380.95 162.379C383.064 159.603 392.72 138.856 398.029 142.259C417.628 154.822 435.12 170.453 455.348 182.617C489.963 203.432 527.718 222.643 553.375 254.792C576.378 283.614 587.502 319.017 592.446 355.158C595.294 375.983 595.648 397.354 594.551 418.326C593.747 433.71 590.052 451.812 597.71 466.17C607.113 483.8 626.115 486.262 644.15 486.173C682.044 485.987 719.449 479.294 756.799 473.657C794.291 467.997 821.029 467.292 848.627 495.531C861.403 508.605 867.606 522.441 876.116 537.76C884.063 552.065 885.591 569.133 885.591 585.136" stroke="#EC5B09" stroke-width="5" stroke-linecap="round"/>
</svg>
