<svg width="57" height="960" viewBox="0 0 57 960" fill="none" xmlns="http://www.w3.org/2000/svg">
<path d="M54 960.5C49.0835 930.214 44.3841 918.792 39.515 888.495C34.1638 855.199 31.3039 821.224 29.3692 787.581C25.866 726.664 32.2563 666.638 36.7973 605.953C42.2479 533.114 47.5148 461.588 38.4279 388.634C35.6939 366.684 30.5217 345.432 26.4704 323.773C22.2982 301.468 22.4458 278.089 22.9375 255.47C23.54 227.752 27.5574 200.106 27.5574 172.401C27.5574 143.876 24.0724 115.219 20.401 86.9774C17.8757 67.552 14.1179 48.1715 10.527 28.9109C8.43992 17.7166 7.17534 10.4508 2.5 0" stroke="#EC5B09" stroke-width="5" stroke-linecap="round"/>
</svg>
